<mxfile host="65bd71144e">
    <diagram name="Pagina-1" id="YjtEGkYkuSaekWWVp4o1">
        <mxGraphModel dx="1537" dy="400" grid="1" gridSize="10" guides="1" tooltips="1" connect="1" arrows="1" fold="1" page="1" pageScale="1" pageWidth="827" pageHeight="1169" math="0" shadow="0">
            <root>
                <mxCell id="0"/>
                <mxCell id="1" parent="0"/>
                <mxCell id="sGo81pWRSlFLJqfYXQ_L-1" value="CONTRATTI" style="rounded=0;whiteSpace=wrap;html=1;" parent="1" vertex="1">
                    <mxGeometry x="120" y="100" width="120" height="60" as="geometry"/>
                </mxCell>
                <mxCell id="sGo81pWRSlFLJqfYXQ_L-3" value="DIPENDENTI" style="rounded=0;whiteSpace=wrap;html=1;" parent="1" vertex="1">
                    <mxGeometry x="120" y="338" width="120" height="60" as="geometry"/>
                </mxCell>
                <mxCell id="sGo81pWRSlFLJqfYXQ_L-5" style="edgeStyle=orthogonalEdgeStyle;rounded=0;orthogonalLoop=1;jettySize=auto;html=1;entryX=0.5;entryY=1;entryDx=0;entryDy=0;" parent="1" source="sGo81pWRSlFLJqfYXQ_L-4" target="sGo81pWRSlFLJqfYXQ_L-1" edge="1">
                    <mxGeometry relative="1" as="geometry"/>
                </mxCell>
                <mxCell id="sGo81pWRSlFLJqfYXQ_L-6" style="edgeStyle=orthogonalEdgeStyle;rounded=0;orthogonalLoop=1;jettySize=auto;html=1;entryX=0.5;entryY=0;entryDx=0;entryDy=0;" parent="1" source="sGo81pWRSlFLJqfYXQ_L-4" target="sGo81pWRSlFLJqfYXQ_L-3" edge="1">
                    <mxGeometry relative="1" as="geometry"/>
                </mxCell>
                <mxCell id="sGo81pWRSlFLJqfYXQ_L-4" value="Assunzione" style="shape=rhombus;perimeter=rhombusPerimeter;whiteSpace=wrap;html=1;align=center;" parent="1" vertex="1">
                    <mxGeometry x="120" y="220" width="120" height="60" as="geometry"/>
                </mxCell>
                <mxCell id="sGo81pWRSlFLJqfYXQ_L-19" value="PRODOTTI" style="rounded=0;whiteSpace=wrap;html=1;" parent="1" vertex="1">
                    <mxGeometry x="1000" y="413" width="120" height="60" as="geometry"/>
                </mxCell>
                <mxCell id="sGo81pWRSlFLJqfYXQ_L-36" style="edgeStyle=orthogonalEdgeStyle;rounded=0;orthogonalLoop=1;jettySize=auto;html=1;entryX=0.5;entryY=1;entryDx=0;entryDy=0;" parent="1" source="sGo81pWRSlFLJqfYXQ_L-29" target="sGo81pWRSlFLJqfYXQ_L-34" edge="1">
                    <mxGeometry relative="1" as="geometry">
                        <mxPoint x="1051.5" y="280" as="sourcePoint"/>
                    </mxGeometry>
                </mxCell>
                <mxCell id="MLYDKA6fRqXWFWqQbDaJ-1" style="edgeStyle=orthogonalEdgeStyle;rounded=0;orthogonalLoop=1;jettySize=auto;html=1;entryX=0.5;entryY=0;entryDx=0;entryDy=0;exitX=1;exitY=0.5;exitDx=0;exitDy=0;" parent="1" source="sGo81pWRSlFLJqfYXQ_L-29" target="sGo81pWRSlFLJqfYXQ_L-19" edge="1">
                    <mxGeometry relative="1" as="geometry">
                        <mxPoint x="952" y="309.5" as="sourcePoint"/>
                        <Array as="points">
                            <mxPoint x="1060" y="309"/>
                        </Array>
                    </mxGeometry>
                </mxCell>
                <mxCell id="sGo81pWRSlFLJqfYXQ_L-29" value="Presenti" style="shape=rhombus;perimeter=rhombusPerimeter;whiteSpace=wrap;html=1;align=center;" parent="1" vertex="1">
                    <mxGeometry x="827" y="279" width="120" height="60" as="geometry"/>
                </mxCell>
                <mxCell id="sGo81pWRSlFLJqfYXQ_L-34" value="MAGAZZINO" style="rounded=0;whiteSpace=wrap;html=1;" parent="1" vertex="1">
                    <mxGeometry x="911" y="156" width="120" height="65" as="geometry"/>
                </mxCell>
                <mxCell id="7" style="edgeStyle=none;html=1;exitX=0;exitY=0.5;exitDx=0;exitDy=0;entryX=0.75;entryY=1;entryDx=0;entryDy=0;" edge="1" parent="1" source="sGo81pWRSlFLJqfYXQ_L-37" target="sGo81pWRSlFLJqfYXQ_L-3">
                    <mxGeometry relative="1" as="geometry">
                        <mxPoint x="220" y="455.41176470588243" as="targetPoint"/>
                        <Array as="points">
                            <mxPoint x="220" y="455"/>
                        </Array>
                    </mxGeometry>
                </mxCell>
                <mxCell id="8" style="edgeStyle=none;html=1;exitX=1;exitY=0.5;exitDx=0;exitDy=0;" edge="1" parent="1" source="sGo81pWRSlFLJqfYXQ_L-37">
                    <mxGeometry relative="1" as="geometry">
                        <mxPoint x="540" y="455.41176470588243" as="targetPoint"/>
                    </mxGeometry>
                </mxCell>
                <mxCell id="sGo81pWRSlFLJqfYXQ_L-37" value="Fanno" style="shape=rhombus;perimeter=rhombusPerimeter;whiteSpace=wrap;html=1;align=center;" parent="1" vertex="1">
                    <mxGeometry x="340" y="425.5" width="120" height="60" as="geometry"/>
                </mxCell>
                <mxCell id="sGo81pWRSlFLJqfYXQ_L-38" value="CLIENTI" style="rounded=0;whiteSpace=wrap;html=1;" parent="1" vertex="1">
                    <mxGeometry x="1041" y="698" width="120" height="60" as="geometry"/>
                </mxCell>
                <mxCell id="sGo81pWRSlFLJqfYXQ_L-44" style="edgeStyle=orthogonalEdgeStyle;rounded=0;orthogonalLoop=1;jettySize=auto;html=1;entryX=0.5;entryY=0;entryDx=0;entryDy=0;" parent="1" source="sGo81pWRSlFLJqfYXQ_L-41" target="sGo81pWRSlFLJqfYXQ_L-42" edge="1">
                    <mxGeometry relative="1" as="geometry"/>
                </mxCell>
                <mxCell id="aAnhq6Uqzf_nA7mnxK8A-34" style="edgeStyle=orthogonalEdgeStyle;rounded=0;orthogonalLoop=1;jettySize=auto;html=1;" parent="1" source="sGo81pWRSlFLJqfYXQ_L-41" edge="1">
                    <mxGeometry relative="1" as="geometry">
                        <mxPoint x="160" y="400" as="targetPoint"/>
                    </mxGeometry>
                </mxCell>
                <mxCell id="sGo81pWRSlFLJqfYXQ_L-41" value="FÃ " style="shape=rhombus;perimeter=rhombusPerimeter;whiteSpace=wrap;html=1;align=center;" parent="1" vertex="1">
                    <mxGeometry y="580" width="120" height="60" as="geometry"/>
                </mxCell>
                <mxCell id="sGo81pWRSlFLJqfYXQ_L-42" value="ORDINI" style="rounded=0;whiteSpace=wrap;html=1;" parent="1" vertex="1">
                    <mxGeometry y="698" width="120" height="60" as="geometry"/>
                </mxCell>
                <mxCell id="sGo81pWRSlFLJqfYXQ_L-46" style="edgeStyle=orthogonalEdgeStyle;rounded=0;orthogonalLoop=1;jettySize=auto;html=1;entryX=0.5;entryY=1;entryDx=0;entryDy=0;" parent="1" source="sGo81pWRSlFLJqfYXQ_L-45" target="sGo81pWRSlFLJqfYXQ_L-42" edge="1">
                    <mxGeometry relative="1" as="geometry"/>
                </mxCell>
                <mxCell id="sGo81pWRSlFLJqfYXQ_L-48" style="edgeStyle=orthogonalEdgeStyle;rounded=0;orthogonalLoop=1;jettySize=auto;html=1;entryX=0.5;entryY=0;entryDx=0;entryDy=0;" parent="1" source="sGo81pWRSlFLJqfYXQ_L-45" target="sGo81pWRSlFLJqfYXQ_L-47" edge="1">
                    <mxGeometry relative="1" as="geometry"/>
                </mxCell>
                <mxCell id="sGo81pWRSlFLJqfYXQ_L-45" value="Gestiti" style="shape=rhombus;perimeter=rhombusPerimeter;whiteSpace=wrap;html=1;align=center;" parent="1" vertex="1">
                    <mxGeometry y="820" width="120" height="60" as="geometry"/>
                </mxCell>
                <mxCell id="sGo81pWRSlFLJqfYXQ_L-47" value="FORNITORI" style="rounded=0;whiteSpace=wrap;html=1;" parent="1" vertex="1">
                    <mxGeometry y="940" width="120" height="60" as="geometry"/>
                </mxCell>
                <mxCell id="sGo81pWRSlFLJqfYXQ_L-50" style="edgeStyle=orthogonalEdgeStyle;rounded=0;orthogonalLoop=1;jettySize=auto;html=1;" parent="1" source="sGo81pWRSlFLJqfYXQ_L-49" target="sGo81pWRSlFLJqfYXQ_L-47" edge="1">
                    <mxGeometry relative="1" as="geometry"/>
                </mxCell>
                <mxCell id="sGo81pWRSlFLJqfYXQ_L-52" style="edgeStyle=orthogonalEdgeStyle;rounded=0;orthogonalLoop=1;jettySize=auto;html=1;entryX=0;entryY=0.5;entryDx=0;entryDy=0;" parent="1" source="sGo81pWRSlFLJqfYXQ_L-49" target="sGo81pWRSlFLJqfYXQ_L-51" edge="1">
                    <mxGeometry relative="1" as="geometry"/>
                </mxCell>
                <mxCell id="sGo81pWRSlFLJqfYXQ_L-49" value="Emettono" style="shape=rhombus;perimeter=rhombusPerimeter;whiteSpace=wrap;html=1;align=center;" parent="1" vertex="1">
                    <mxGeometry x="240" y="940" width="120" height="60" as="geometry"/>
                </mxCell>
                <mxCell id="sGo81pWRSlFLJqfYXQ_L-51" value="BOLLA D'&lt;div&gt;ACQUISTO&lt;/div&gt;" style="rounded=0;whiteSpace=wrap;html=1;" parent="1" vertex="1">
                    <mxGeometry x="442" y="940" width="120" height="60" as="geometry"/>
                </mxCell>
                <mxCell id="sGo81pWRSlFLJqfYXQ_L-53" value="numero&amp;nbsp;&lt;div&gt;contratto&lt;/div&gt;" style="text;html=1;align=center;verticalAlign=middle;resizable=0;points=[];autosize=1;strokeColor=none;fillColor=none;" parent="1" vertex="1">
                    <mxGeometry x="13.5" y="60" width="70" height="40" as="geometry"/>
                </mxCell>
                <mxCell id="sGo81pWRSlFLJqfYXQ_L-54" value="nome" style="text;html=1;align=center;verticalAlign=middle;resizable=0;points=[];autosize=1;strokeColor=none;fillColor=none;" parent="1" vertex="1">
                    <mxGeometry x="23.5" y="105" width="50" height="30" as="geometry"/>
                </mxCell>
                <mxCell id="sGo81pWRSlFLJqfYXQ_L-55" value="cognome" style="text;html=1;align=center;verticalAlign=middle;resizable=0;points=[];autosize=1;strokeColor=none;fillColor=none;" parent="1" vertex="1">
                    <mxGeometry x="17.5" y="145" width="70" height="30" as="geometry"/>
                </mxCell>
                <mxCell id="sGo81pWRSlFLJqfYXQ_L-56" value="codice&lt;div&gt;&amp;nbsp;fiscale&lt;/div&gt;" style="text;html=1;align=center;verticalAlign=middle;resizable=0;points=[];autosize=1;strokeColor=none;fillColor=none;" parent="1" vertex="1">
                    <mxGeometry x="110" y="20" width="60" height="40" as="geometry"/>
                </mxCell>
                <mxCell id="sGo81pWRSlFLJqfYXQ_L-57" value="data&lt;div&gt;nascita&lt;/div&gt;" style="text;html=1;align=center;verticalAlign=middle;resizable=0;points=[];autosize=1;strokeColor=none;fillColor=none;" parent="1" vertex="1">
                    <mxGeometry x="170" y="20" width="60" height="40" as="geometry"/>
                </mxCell>
                <mxCell id="sGo81pWRSlFLJqfYXQ_L-58" value="tipologia&amp;nbsp;&lt;div&gt;contratto&lt;/div&gt;" style="text;html=1;align=center;verticalAlign=middle;resizable=0;points=[];autosize=1;strokeColor=none;fillColor=none;" parent="1" vertex="1">
                    <mxGeometry x="240" y="15" width="70" height="40" as="geometry"/>
                </mxCell>
                <mxCell id="sGo81pWRSlFLJqfYXQ_L-59" value="inizio contratto" style="text;html=1;align=center;verticalAlign=middle;resizable=0;points=[];autosize=1;strokeColor=none;fillColor=none;" parent="1" vertex="1">
                    <mxGeometry x="265" y="80" width="100" height="30" as="geometry"/>
                </mxCell>
                <mxCell id="sGo81pWRSlFLJqfYXQ_L-60" value="termine contratto" style="text;html=1;align=center;verticalAlign=middle;resizable=0;points=[];autosize=1;strokeColor=none;fillColor=none;" parent="1" vertex="1">
                    <mxGeometry x="265" y="114" width="110" height="30" as="geometry"/>
                </mxCell>
                <mxCell id="sGo81pWRSlFLJqfYXQ_L-63" value="" style="ellipse;whiteSpace=wrap;html=1;aspect=fixed;" parent="1" vertex="1">
                    <mxGeometry x="192.5" y="55" width="15" height="15" as="geometry"/>
                </mxCell>
                <mxCell id="sGo81pWRSlFLJqfYXQ_L-65" value="" style="ellipse;whiteSpace=wrap;html=1;aspect=fixed;" parent="1" vertex="1">
                    <mxGeometry x="67.5" y="115" width="15" height="15" as="geometry"/>
                </mxCell>
                <mxCell id="sGo81pWRSlFLJqfYXQ_L-66" value="" style="ellipse;whiteSpace=wrap;html=1;aspect=fixed;" parent="1" vertex="1">
                    <mxGeometry x="82.5" y="152.5" width="15" height="15" as="geometry"/>
                </mxCell>
                <mxCell id="sGo81pWRSlFLJqfYXQ_L-69" value="" style="ellipse;whiteSpace=wrap;html=1;aspect=fixed;" parent="1" vertex="1">
                    <mxGeometry x="132.5" y="55" width="15" height="15" as="geometry"/>
                </mxCell>
                <mxCell id="sGo81pWRSlFLJqfYXQ_L-70" value="" style="ellipse;whiteSpace=wrap;html=1;aspect=fixed;" parent="1" vertex="1">
                    <mxGeometry x="257.5" y="55" width="15" height="15" as="geometry"/>
                </mxCell>
                <mxCell id="sGo81pWRSlFLJqfYXQ_L-71" value="" style="ellipse;whiteSpace=wrap;html=1;aspect=fixed;" parent="1" vertex="1">
                    <mxGeometry x="257.5" y="90" width="15" height="15" as="geometry"/>
                </mxCell>
                <mxCell id="sGo81pWRSlFLJqfYXQ_L-72" value="" style="ellipse;whiteSpace=wrap;html=1;aspect=fixed;" parent="1" vertex="1">
                    <mxGeometry x="257.5" y="122.5" width="15" height="15" as="geometry"/>
                </mxCell>
                <mxCell id="sGo81pWRSlFLJqfYXQ_L-73" value="" style="endArrow=none;html=1;rounded=0;exitX=1;exitY=0;exitDx=0;exitDy=0;" parent="1" source="sGo81pWRSlFLJqfYXQ_L-66" edge="1">
                    <mxGeometry width="50" height="50" relative="1" as="geometry">
                        <mxPoint x="70" y="180" as="sourcePoint"/>
                        <mxPoint x="120" y="130" as="targetPoint"/>
                    </mxGeometry>
                </mxCell>
                <mxCell id="sGo81pWRSlFLJqfYXQ_L-74" value="" style="endArrow=none;html=1;rounded=0;exitX=1;exitY=0.5;exitDx=0;exitDy=0;" parent="1" source="sGo81pWRSlFLJqfYXQ_L-65" edge="1">
                    <mxGeometry width="50" height="50" relative="1" as="geometry">
                        <mxPoint x="70" y="170" as="sourcePoint"/>
                        <mxPoint x="120" y="120" as="targetPoint"/>
                    </mxGeometry>
                </mxCell>
                <mxCell id="sGo81pWRSlFLJqfYXQ_L-76" value="" style="ellipse;whiteSpace=wrap;html=1;aspect=fixed;" parent="1" vertex="1">
                    <mxGeometry x="73.5" y="72.5" width="15" height="15" as="geometry"/>
                </mxCell>
                <mxCell id="sGo81pWRSlFLJqfYXQ_L-77" value="" style="endArrow=none;html=1;rounded=0;entryX=-0.014;entryY=0.11;entryDx=0;entryDy=0;entryPerimeter=0;exitX=0.963;exitY=0.692;exitDx=0;exitDy=0;exitPerimeter=0;" parent="1" source="sGo81pWRSlFLJqfYXQ_L-76" target="sGo81pWRSlFLJqfYXQ_L-1" edge="1">
                    <mxGeometry width="50" height="50" relative="1" as="geometry">
                        <mxPoint x="90" y="110" as="sourcePoint"/>
                        <mxPoint x="140" y="60" as="targetPoint"/>
                    </mxGeometry>
                </mxCell>
                <mxCell id="sGo81pWRSlFLJqfYXQ_L-78" value="" style="endArrow=none;html=1;rounded=0;entryX=0.5;entryY=1;entryDx=0;entryDy=0;" parent="1" target="sGo81pWRSlFLJqfYXQ_L-69" edge="1">
                    <mxGeometry width="50" height="50" relative="1" as="geometry">
                        <mxPoint x="140" y="100" as="sourcePoint"/>
                        <mxPoint x="190" y="50" as="targetPoint"/>
                    </mxGeometry>
                </mxCell>
                <mxCell id="sGo81pWRSlFLJqfYXQ_L-79" value="" style="endArrow=none;html=1;rounded=0;entryX=0.5;entryY=1;entryDx=0;entryDy=0;" parent="1" target="sGo81pWRSlFLJqfYXQ_L-63" edge="1">
                    <mxGeometry width="50" height="50" relative="1" as="geometry">
                        <mxPoint x="200" y="100" as="sourcePoint"/>
                        <mxPoint x="250" y="50" as="targetPoint"/>
                    </mxGeometry>
                </mxCell>
                <mxCell id="sGo81pWRSlFLJqfYXQ_L-80" value="" style="endArrow=none;html=1;rounded=0;" parent="1" edge="1">
                    <mxGeometry width="50" height="50" relative="1" as="geometry">
                        <mxPoint x="230" y="100" as="sourcePoint"/>
                        <mxPoint x="260" y="70" as="targetPoint"/>
                    </mxGeometry>
                </mxCell>
                <mxCell id="sGo81pWRSlFLJqfYXQ_L-81" value="" style="endArrow=none;html=1;rounded=0;entryX=0;entryY=0.5;entryDx=0;entryDy=0;" parent="1" target="sGo81pWRSlFLJqfYXQ_L-71" edge="1">
                    <mxGeometry width="50" height="50" relative="1" as="geometry">
                        <mxPoint x="240" y="100" as="sourcePoint"/>
                        <mxPoint x="290" y="50" as="targetPoint"/>
                    </mxGeometry>
                </mxCell>
                <mxCell id="sGo81pWRSlFLJqfYXQ_L-82" value="" style="endArrow=none;html=1;rounded=0;entryX=-0.011;entryY=0.391;entryDx=0;entryDy=0;entryPerimeter=0;" parent="1" target="sGo81pWRSlFLJqfYXQ_L-72" edge="1">
                    <mxGeometry width="50" height="50" relative="1" as="geometry">
                        <mxPoint x="240" y="140" as="sourcePoint"/>
                        <mxPoint x="290" y="90" as="targetPoint"/>
                    </mxGeometry>
                </mxCell>
                <mxCell id="sGo81pWRSlFLJqfYXQ_L-94" value="Badge" style="text;html=1;align=center;verticalAlign=middle;resizable=0;points=[];autosize=1;strokeColor=none;fillColor=none;" parent="1" vertex="1">
                    <mxGeometry x="96.5" y="268" width="60" height="30" as="geometry"/>
                </mxCell>
                <mxCell id="sGo81pWRSlFLJqfYXQ_L-95" value="Numero&lt;div&gt;contratto&lt;/div&gt;" style="text;html=1;align=center;verticalAlign=middle;resizable=0;points=[];autosize=1;strokeColor=none;fillColor=none;" parent="1" vertex="1">
                    <mxGeometry x="33.5" y="273" width="70" height="40" as="geometry"/>
                </mxCell>
                <mxCell id="sGo81pWRSlFLJqfYXQ_L-97" value="" style="ellipse;whiteSpace=wrap;html=1;aspect=fixed;" parent="1" vertex="1">
                    <mxGeometry x="120" y="290" width="15" height="15" as="geometry"/>
                </mxCell>
                <mxCell id="sGo81pWRSlFLJqfYXQ_L-98" value="" style="ellipse;whiteSpace=wrap;html=1;aspect=fixed;" parent="1" vertex="1">
                    <mxGeometry x="88.5" y="305" width="15" height="15" as="geometry"/>
                </mxCell>
                <mxCell id="sGo81pWRSlFLJqfYXQ_L-100" value="" style="endArrow=none;html=1;rounded=0;entryX=0.061;entryY=-0.006;entryDx=0;entryDy=0;entryPerimeter=0;" parent="1" target="sGo81pWRSlFLJqfYXQ_L-3" edge="1">
                    <mxGeometry width="50" height="50" relative="1" as="geometry">
                        <mxPoint x="103.5" y="316" as="sourcePoint"/>
                        <mxPoint x="136.5" y="311" as="targetPoint"/>
                    </mxGeometry>
                </mxCell>
                <mxCell id="sGo81pWRSlFLJqfYXQ_L-107" style="edgeStyle=orthogonalEdgeStyle;rounded=0;orthogonalLoop=1;jettySize=auto;html=1;" parent="1" source="sGo81pWRSlFLJqfYXQ_L-101" target="sGo81pWRSlFLJqfYXQ_L-104" edge="1">
                    <mxGeometry relative="1" as="geometry"/>
                </mxCell>
                <mxCell id="aAnhq6Uqzf_nA7mnxK8A-32" style="edgeStyle=orthogonalEdgeStyle;rounded=0;orthogonalLoop=1;jettySize=auto;html=1;entryX=0.5;entryY=1;entryDx=0;entryDy=0;" parent="1" source="sGo81pWRSlFLJqfYXQ_L-101" target="sGo81pWRSlFLJqfYXQ_L-3" edge="1">
                    <mxGeometry relative="1" as="geometry"/>
                </mxCell>
                <mxCell id="sGo81pWRSlFLJqfYXQ_L-101" value="Praticano" style="shape=rhombus;perimeter=rhombusPerimeter;whiteSpace=wrap;html=1;align=center;" parent="1" vertex="1">
                    <mxGeometry x="240" y="579" width="120" height="60" as="geometry"/>
                </mxCell>
                <mxCell id="sGo81pWRSlFLJqfYXQ_L-104" value="SERVIZI&lt;div&gt;VARI&lt;/div&gt;" style="rounded=0;whiteSpace=wrap;html=1;" parent="1" vertex="1">
                    <mxGeometry x="241" y="698" width="120" height="60" as="geometry"/>
                </mxCell>
                <mxCell id="11" style="edgeStyle=none;html=1;exitX=0;exitY=0.5;exitDx=0;exitDy=0;entryX=1;entryY=0.5;entryDx=0;entryDy=0;" edge="1" parent="1" source="sGo81pWRSlFLJqfYXQ_L-114" target="MLYDKA6fRqXWFWqQbDaJ-16">
                    <mxGeometry relative="1" as="geometry"/>
                </mxCell>
                <mxCell id="13" style="edgeStyle=none;html=1;exitX=1;exitY=0.5;exitDx=0;exitDy=0;entryX=0;entryY=0.5;entryDx=0;entryDy=0;" edge="1" parent="1" source="sGo81pWRSlFLJqfYXQ_L-114" target="sGo81pWRSlFLJqfYXQ_L-19">
                    <mxGeometry relative="1" as="geometry"/>
                </mxCell>
                <mxCell id="sGo81pWRSlFLJqfYXQ_L-114" value="Venduti" style="shape=rhombus;perimeter=rhombusPerimeter;whiteSpace=wrap;html=1;align=center;" parent="1" vertex="1">
                    <mxGeometry x="783" y="413" width="120" height="60" as="geometry"/>
                </mxCell>
                <mxCell id="sGo81pWRSlFLJqfYXQ_L-115" value="RICETTA" style="rounded=0;whiteSpace=wrap;html=1;" parent="1" vertex="1">
                    <mxGeometry x="1041" y="940" width="120" height="60" as="geometry"/>
                </mxCell>
                <mxCell id="MLYDKA6fRqXWFWqQbDaJ-4" value="" style="endArrow=none;html=1;rounded=0;exitX=0.279;exitY=-0.019;exitDx=0;exitDy=0;exitPerimeter=0;" parent="1" source="sGo81pWRSlFLJqfYXQ_L-3" edge="1">
                    <mxGeometry width="50" height="50" relative="1" as="geometry">
                        <mxPoint x="83" y="354" as="sourcePoint"/>
                        <mxPoint x="133" y="304" as="targetPoint"/>
                    </mxGeometry>
                </mxCell>
                <mxCell id="MLYDKA6fRqXWFWqQbDaJ-16" value="&amp;nbsp;VENDITE" style="rounded=0;whiteSpace=wrap;html=1;" parent="1" vertex="1">
                    <mxGeometry x="542" y="413" width="120" height="60" as="geometry"/>
                </mxCell>
                <mxCell id="MLYDKA6fRqXWFWqQbDaJ-20" style="edgeStyle=orthogonalEdgeStyle;rounded=0;orthogonalLoop=1;jettySize=auto;html=1;entryX=0.5;entryY=0;entryDx=0;entryDy=0;" parent="1" source="MLYDKA6fRqXWFWqQbDaJ-19" target="sGo81pWRSlFLJqfYXQ_L-115" edge="1">
                    <mxGeometry relative="1" as="geometry"/>
                </mxCell>
                <mxCell id="MLYDKA6fRqXWFWqQbDaJ-21" style="edgeStyle=orthogonalEdgeStyle;rounded=0;orthogonalLoop=1;jettySize=auto;html=1;entryX=0.5;entryY=1;entryDx=0;entryDy=0;" parent="1" source="MLYDKA6fRqXWFWqQbDaJ-19" target="sGo81pWRSlFLJqfYXQ_L-38" edge="1">
                    <mxGeometry relative="1" as="geometry"/>
                </mxCell>
                <mxCell id="MLYDKA6fRqXWFWqQbDaJ-19" value="Sono in possesso" style="shape=rhombus;perimeter=rhombusPerimeter;whiteSpace=wrap;html=1;align=center;" parent="1" vertex="1">
                    <mxGeometry x="1041" y="820" width="120" height="60" as="geometry"/>
                </mxCell>
                <mxCell id="MLYDKA6fRqXWFWqQbDaJ-28" style="edgeStyle=orthogonalEdgeStyle;rounded=0;orthogonalLoop=1;jettySize=auto;html=1;entryX=0.5;entryY=1;entryDx=0;entryDy=0;" parent="1" source="MLYDKA6fRqXWFWqQbDaJ-24" target="MLYDKA6fRqXWFWqQbDaJ-25" edge="1">
                    <mxGeometry relative="1" as="geometry"/>
                </mxCell>
                <mxCell id="MLYDKA6fRqXWFWqQbDaJ-24" value="Costano" style="shape=rhombus;perimeter=rhombusPerimeter;whiteSpace=wrap;html=1;align=center;" parent="1" vertex="1">
                    <mxGeometry x="321" y="340" width="120" height="60" as="geometry"/>
                </mxCell>
                <mxCell id="MLYDKA6fRqXWFWqQbDaJ-25" value="REGISTRO&lt;div&gt;CONTABILE&lt;/div&gt;" style="rounded=0;whiteSpace=wrap;html=1;" parent="1" vertex="1">
                    <mxGeometry x="322" y="220" width="120" height="60" as="geometry"/>
                </mxCell>
                <mxCell id="MLYDKA6fRqXWFWqQbDaJ-27" style="edgeStyle=orthogonalEdgeStyle;rounded=0;orthogonalLoop=1;jettySize=auto;html=1;entryX=0.993;entryY=0.543;entryDx=0;entryDy=0;entryPerimeter=0;" parent="1" source="MLYDKA6fRqXWFWqQbDaJ-24" target="sGo81pWRSlFLJqfYXQ_L-3" edge="1">
                    <mxGeometry relative="1" as="geometry"/>
                </mxCell>
                <mxCell id="6ZU64Irlaz8Kc_cLsEmv-7" style="edgeStyle=orthogonalEdgeStyle;rounded=0;orthogonalLoop=1;jettySize=auto;html=1;entryX=1;entryY=0.5;entryDx=0;entryDy=0;" parent="1" source="6ZU64Irlaz8Kc_cLsEmv-3" target="sGo81pWRSlFLJqfYXQ_L-104" edge="1">
                    <mxGeometry relative="1" as="geometry"/>
                </mxCell>
                <mxCell id="aAnhq6Uqzf_nA7mnxK8A-14" style="edgeStyle=orthogonalEdgeStyle;rounded=0;orthogonalLoop=1;jettySize=auto;html=1;entryX=0;entryY=0.5;entryDx=0;entryDy=0;" parent="1" source="6ZU64Irlaz8Kc_cLsEmv-3" target="6ZU64Irlaz8Kc_cLsEmv-5" edge="1">
                    <mxGeometry relative="1" as="geometry"/>
                </mxCell>
                <mxCell id="6ZU64Irlaz8Kc_cLsEmv-3" value="Necessitano" style="shape=rhombus;perimeter=rhombusPerimeter;whiteSpace=wrap;html=1;align=center;" parent="1" vertex="1">
                    <mxGeometry x="441" y="698" width="120" height="60" as="geometry"/>
                </mxCell>
                <mxCell id="6ZU64Irlaz8Kc_cLsEmv-5" value="PRENOTAZIONI" style="rounded=0;whiteSpace=wrap;html=1;" parent="1" vertex="1">
                    <mxGeometry x="643" y="748" width="120" height="60" as="geometry"/>
                </mxCell>
                <mxCell id="6ZU64Irlaz8Kc_cLsEmv-9" style="edgeStyle=orthogonalEdgeStyle;rounded=0;orthogonalLoop=1;jettySize=auto;html=1;entryX=1;entryY=0.5;entryDx=0;entryDy=0;" parent="1" source="6ZU64Irlaz8Kc_cLsEmv-6" target="6ZU64Irlaz8Kc_cLsEmv-5" edge="1">
                    <mxGeometry relative="1" as="geometry"/>
                </mxCell>
                <mxCell id="6ZU64Irlaz8Kc_cLsEmv-10" style="edgeStyle=orthogonalEdgeStyle;rounded=0;orthogonalLoop=1;jettySize=auto;html=1;" parent="1" source="6ZU64Irlaz8Kc_cLsEmv-6" edge="1">
                    <mxGeometry relative="1" as="geometry">
                        <mxPoint x="1040" y="728" as="targetPoint"/>
                    </mxGeometry>
                </mxCell>
                <mxCell id="6ZU64Irlaz8Kc_cLsEmv-6" value="Richiedono" style="shape=rhombus;perimeter=rhombusPerimeter;whiteSpace=wrap;html=1;align=center;" parent="1" vertex="1">
                    <mxGeometry x="840" y="698" width="120" height="60" as="geometry"/>
                </mxCell>
                <mxCell id="DV-QQxApzA29Bk_mKNCQ-1" value="id&amp;nbsp;&lt;div&gt;farmaco&lt;/div&gt;" style="text;html=1;align=center;verticalAlign=middle;resizable=0;points=[];autosize=1;strokeColor=none;fillColor=none;" parent="1" vertex="1">
                    <mxGeometry x="886" y="85" width="70" height="40" as="geometry"/>
                </mxCell>
                <mxCell id="DV-QQxApzA29Bk_mKNCQ-2" value="fila" style="text;html=1;align=center;verticalAlign=middle;resizable=0;points=[];autosize=1;strokeColor=none;fillColor=none;" parent="1" vertex="1">
                    <mxGeometry x="959" y="91.5" width="40" height="30" as="geometry"/>
                </mxCell>
                <mxCell id="DV-QQxApzA29Bk_mKNCQ-3" value="posto" style="text;html=1;align=center;verticalAlign=middle;resizable=0;points=[];autosize=1;strokeColor=none;fillColor=none;" parent="1" vertex="1">
                    <mxGeometry x="1011" y="96" width="50" height="30" as="geometry"/>
                </mxCell>
                <mxCell id="DV-QQxApzA29Bk_mKNCQ-4" value="numero restanti&amp;nbsp;" style="text;html=1;align=center;verticalAlign=middle;resizable=0;points=[];autosize=1;strokeColor=none;fillColor=none;" parent="1" vertex="1">
                    <mxGeometry x="1060" y="135.5" width="110" height="30" as="geometry"/>
                </mxCell>
                <mxCell id="DV-QQxApzA29Bk_mKNCQ-5" value="numero minimo&amp;nbsp;" style="text;html=1;align=center;verticalAlign=middle;resizable=0;points=[];autosize=1;strokeColor=none;fillColor=none;" parent="1" vertex="1">
                    <mxGeometry x="1060" y="171" width="110" height="30" as="geometry"/>
                </mxCell>
                <mxCell id="DV-QQxApzA29Bk_mKNCQ-6" value="data prossimo carico" style="text;html=1;align=center;verticalAlign=middle;resizable=0;points=[];autosize=1;strokeColor=none;fillColor=none;" parent="1" vertex="1">
                    <mxGeometry x="1060" y="201" width="130" height="30" as="geometry"/>
                </mxCell>
                <mxCell id="DV-QQxApzA29Bk_mKNCQ-7" value="" style="ellipse;whiteSpace=wrap;html=1;aspect=fixed;" parent="1" vertex="1">
                    <mxGeometry x="913.5" y="119" width="15" height="15" as="geometry"/>
                </mxCell>
                <mxCell id="DV-QQxApzA29Bk_mKNCQ-8" value="" style="ellipse;whiteSpace=wrap;html=1;aspect=fixed;" parent="1" vertex="1">
                    <mxGeometry x="971.5" y="116.5" width="15" height="15" as="geometry"/>
                </mxCell>
                <mxCell id="DV-QQxApzA29Bk_mKNCQ-9" value="" style="ellipse;whiteSpace=wrap;html=1;aspect=fixed;" parent="1" vertex="1">
                    <mxGeometry x="1028.5" y="119" width="15" height="15" as="geometry"/>
                </mxCell>
                <mxCell id="DV-QQxApzA29Bk_mKNCQ-10" value="" style="ellipse;whiteSpace=wrap;html=1;aspect=fixed;" parent="1" vertex="1">
                    <mxGeometry x="1056" y="146" width="15" height="15" as="geometry"/>
                </mxCell>
                <mxCell id="DV-QQxApzA29Bk_mKNCQ-11" value="" style="ellipse;whiteSpace=wrap;html=1;aspect=fixed;" parent="1" vertex="1">
                    <mxGeometry x="1056" y="179.5" width="15" height="15" as="geometry"/>
                </mxCell>
                <mxCell id="DV-QQxApzA29Bk_mKNCQ-13" value="" style="ellipse;whiteSpace=wrap;html=1;aspect=fixed;" parent="1" vertex="1">
                    <mxGeometry x="1054" y="209.5" width="15" height="15" as="geometry"/>
                </mxCell>
                <mxCell id="DV-QQxApzA29Bk_mKNCQ-16" value="" style="endArrow=none;html=1;rounded=0;exitX=0.147;exitY=-0.016;exitDx=0;exitDy=0;exitPerimeter=0;entryX=0.5;entryY=1;entryDx=0;entryDy=0;" parent="1" source="sGo81pWRSlFLJqfYXQ_L-34" target="DV-QQxApzA29Bk_mKNCQ-7" edge="1">
                    <mxGeometry width="50" height="50" relative="1" as="geometry">
                        <mxPoint x="871" y="186" as="sourcePoint"/>
                        <mxPoint x="921" y="136" as="targetPoint"/>
                    </mxGeometry>
                </mxCell>
                <mxCell id="DV-QQxApzA29Bk_mKNCQ-17" value="" style="endArrow=none;html=1;rounded=0;exitX=0.5;exitY=0;exitDx=0;exitDy=0;" parent="1" edge="1" source="sGo81pWRSlFLJqfYXQ_L-34">
                    <mxGeometry width="50" height="50" relative="1" as="geometry">
                        <mxPoint x="978.5" y="156" as="sourcePoint"/>
                        <mxPoint x="975.5" y="131.5" as="targetPoint"/>
                    </mxGeometry>
                </mxCell>
                <mxCell id="DV-QQxApzA29Bk_mKNCQ-18" value="" style="endArrow=none;html=1;rounded=0;entryX=0.5;entryY=1;entryDx=0;entryDy=0;" parent="1" target="DV-QQxApzA29Bk_mKNCQ-9" edge="1">
                    <mxGeometry width="50" height="50" relative="1" as="geometry">
                        <mxPoint x="1021" y="156" as="sourcePoint"/>
                        <mxPoint x="1071" y="106" as="targetPoint"/>
                    </mxGeometry>
                </mxCell>
                <mxCell id="DV-QQxApzA29Bk_mKNCQ-19" value="" style="endArrow=none;html=1;rounded=0;entryX=0;entryY=0.5;entryDx=0;entryDy=0;" parent="1" target="DV-QQxApzA29Bk_mKNCQ-10" edge="1">
                    <mxGeometry width="50" height="50" relative="1" as="geometry">
                        <mxPoint x="1031" y="166" as="sourcePoint"/>
                        <mxPoint x="1081" y="116" as="targetPoint"/>
                    </mxGeometry>
                </mxCell>
                <mxCell id="DV-QQxApzA29Bk_mKNCQ-20" value="" style="endArrow=none;html=1;rounded=0;entryX=0;entryY=0.5;entryDx=0;entryDy=0;" parent="1" target="DV-QQxApzA29Bk_mKNCQ-11" edge="1">
                    <mxGeometry width="50" height="50" relative="1" as="geometry">
                        <mxPoint x="1031" y="196" as="sourcePoint"/>
                        <mxPoint x="1081" y="146" as="targetPoint"/>
                    </mxGeometry>
                </mxCell>
                <mxCell id="DV-QQxApzA29Bk_mKNCQ-21" value="" style="endArrow=none;html=1;rounded=0;entryX=0;entryY=0.5;entryDx=0;entryDy=0;" parent="1" target="DV-QQxApzA29Bk_mKNCQ-13" edge="1">
                    <mxGeometry width="50" height="50" relative="1" as="geometry">
                        <mxPoint x="1031" y="216" as="sourcePoint"/>
                        <mxPoint x="1081" y="166" as="targetPoint"/>
                    </mxGeometry>
                </mxCell>
                <mxCell id="DV-QQxApzA29Bk_mKNCQ-22" value="spese&lt;div&gt;ordini&lt;/div&gt;" style="text;html=1;align=center;verticalAlign=middle;resizable=0;points=[];autosize=1;strokeColor=none;fillColor=none;" parent="1" vertex="1">
                    <mxGeometry x="272.5" y="155" width="60" height="40" as="geometry"/>
                </mxCell>
                <mxCell id="DV-QQxApzA29Bk_mKNCQ-23" value="spese&lt;div&gt;dipendenti&lt;/div&gt;" style="text;html=1;align=center;verticalAlign=middle;resizable=0;points=[];autosize=1;strokeColor=none;fillColor=none;" parent="1" vertex="1">
                    <mxGeometry x="332.5" y="150" width="80" height="40" as="geometry"/>
                </mxCell>
                <mxCell id="DV-QQxApzA29Bk_mKNCQ-24" value="guadagno&lt;div&gt;vendita&lt;/div&gt;" style="text;html=1;align=center;verticalAlign=middle;resizable=0;points=[];autosize=1;strokeColor=none;fillColor=none;" parent="1" vertex="1">
                    <mxGeometry x="412.5" y="150" width="80" height="40" as="geometry"/>
                </mxCell>
                <mxCell id="DV-QQxApzA29Bk_mKNCQ-25" value="guadagni&lt;div&gt;altre attivitÃ &lt;/div&gt;" style="text;html=1;align=center;verticalAlign=middle;resizable=0;points=[];autosize=1;strokeColor=none;fillColor=none;" parent="1" vertex="1">
                    <mxGeometry x="481" y="194.5" width="80" height="40" as="geometry"/>
                </mxCell>
                <mxCell id="DV-QQxApzA29Bk_mKNCQ-26" value="mese anno" style="text;html=1;align=center;verticalAlign=middle;resizable=0;points=[];autosize=1;strokeColor=none;fillColor=none;" parent="1" vertex="1">
                    <mxGeometry x="481" y="243.5" width="80" height="30" as="geometry"/>
                </mxCell>
                <mxCell id="DV-QQxApzA29Bk_mKNCQ-27" value="" style="ellipse;whiteSpace=wrap;html=1;aspect=fixed;" parent="1" vertex="1">
                    <mxGeometry x="475" y="253" width="15" height="15" as="geometry"/>
                </mxCell>
                <mxCell id="DV-QQxApzA29Bk_mKNCQ-28" value="" style="ellipse;whiteSpace=wrap;html=1;aspect=fixed;" parent="1" vertex="1">
                    <mxGeometry x="475" y="210" width="15" height="15" as="geometry"/>
                </mxCell>
                <mxCell id="DV-QQxApzA29Bk_mKNCQ-29" value="" style="ellipse;whiteSpace=wrap;html=1;aspect=fixed;" parent="1" vertex="1">
                    <mxGeometry x="442" y="183" width="15" height="15" as="geometry"/>
                </mxCell>
                <mxCell id="DV-QQxApzA29Bk_mKNCQ-30" value="" style="ellipse;whiteSpace=wrap;html=1;aspect=fixed;" parent="1" vertex="1">
                    <mxGeometry x="365" y="184.5" width="15" height="15" as="geometry"/>
                </mxCell>
                <mxCell id="DV-QQxApzA29Bk_mKNCQ-31" value="" style="ellipse;whiteSpace=wrap;html=1;aspect=fixed;" parent="1" vertex="1">
                    <mxGeometry x="300" y="189" width="15" height="15" as="geometry"/>
                </mxCell>
                <mxCell id="DV-QQxApzA29Bk_mKNCQ-32" value="" style="endArrow=none;html=1;rounded=0;entryX=1;entryY=1;entryDx=0;entryDy=0;" parent="1" target="DV-QQxApzA29Bk_mKNCQ-31" edge="1">
                    <mxGeometry width="50" height="50" relative="1" as="geometry">
                        <mxPoint x="330" y="220" as="sourcePoint"/>
                        <mxPoint x="380" y="170" as="targetPoint"/>
                    </mxGeometry>
                </mxCell>
                <mxCell id="DV-QQxApzA29Bk_mKNCQ-33" value="" style="endArrow=none;html=1;rounded=0;exitX=0.419;exitY=-0.011;exitDx=0;exitDy=0;exitPerimeter=0;entryX=0.5;entryY=1;entryDx=0;entryDy=0;" parent="1" source="MLYDKA6fRqXWFWqQbDaJ-25" target="DV-QQxApzA29Bk_mKNCQ-30" edge="1">
                    <mxGeometry width="50" height="50" relative="1" as="geometry">
                        <mxPoint x="325" y="249.5" as="sourcePoint"/>
                        <mxPoint x="375" y="199.5" as="targetPoint"/>
                    </mxGeometry>
                </mxCell>
                <mxCell id="DV-QQxApzA29Bk_mKNCQ-34" value="" style="endArrow=none;html=1;rounded=0;exitX=0.808;exitY=0.001;exitDx=0;exitDy=0;exitPerimeter=0;" parent="1" source="MLYDKA6fRqXWFWqQbDaJ-25" edge="1">
                    <mxGeometry width="50" height="50" relative="1" as="geometry">
                        <mxPoint x="394" y="246" as="sourcePoint"/>
                        <mxPoint x="444" y="196" as="targetPoint"/>
                    </mxGeometry>
                </mxCell>
                <mxCell id="DV-QQxApzA29Bk_mKNCQ-35" value="" style="endArrow=none;html=1;rounded=0;exitX=1.002;exitY=0.146;exitDx=0;exitDy=0;exitPerimeter=0;" parent="1" source="MLYDKA6fRqXWFWqQbDaJ-25" edge="1">
                    <mxGeometry width="50" height="50" relative="1" as="geometry">
                        <mxPoint x="425" y="268" as="sourcePoint"/>
                        <mxPoint x="475" y="218" as="targetPoint"/>
                    </mxGeometry>
                </mxCell>
                <mxCell id="DV-QQxApzA29Bk_mKNCQ-36" value="" style="endArrow=none;html=1;rounded=0;exitX=0.997;exitY=0.668;exitDx=0;exitDy=0;exitPerimeter=0;" parent="1" source="MLYDKA6fRqXWFWqQbDaJ-25" edge="1">
                    <mxGeometry width="50" height="50" relative="1" as="geometry">
                        <mxPoint x="425" y="310" as="sourcePoint"/>
                        <mxPoint x="475" y="260" as="targetPoint"/>
                    </mxGeometry>
                </mxCell>
                <mxCell id="DV-QQxApzA29Bk_mKNCQ-38" value="certificazione" style="text;html=1;align=center;verticalAlign=middle;resizable=0;points=[];autosize=1;strokeColor=none;fillColor=none;" parent="1" vertex="1">
                    <mxGeometry x="76.5" y="433" width="90" height="30" as="geometry"/>
                </mxCell>
                <mxCell id="DV-QQxApzA29Bk_mKNCQ-46" value="id&lt;div&gt;prodotto&lt;/div&gt;" style="text;html=1;align=center;verticalAlign=middle;resizable=0;points=[];autosize=1;strokeColor=none;fillColor=none;" parent="1" vertex="1">
                    <mxGeometry x="60.5" y="643" width="70" height="40" as="geometry"/>
                </mxCell>
                <mxCell id="DV-QQxApzA29Bk_mKNCQ-47" value="quantitÃ " style="text;html=1;align=center;verticalAlign=middle;resizable=0;points=[];autosize=1;strokeColor=none;fillColor=none;" parent="1" vertex="1">
                    <mxGeometry x="131.5" y="665" width="70" height="30" as="geometry"/>
                </mxCell>
                <mxCell id="DV-QQxApzA29Bk_mKNCQ-48" value="nome&amp;nbsp;&lt;div&gt;fornitore&lt;/div&gt;" style="text;html=1;align=center;verticalAlign=middle;resizable=0;points=[];autosize=1;strokeColor=none;fillColor=none;" parent="1" vertex="1">
                    <mxGeometry x="145" y="698" width="70" height="40" as="geometry"/>
                </mxCell>
                <mxCell id="DV-QQxApzA29Bk_mKNCQ-49" value="prezzo&amp;nbsp;&lt;div&gt;unitario&lt;/div&gt;" style="text;html=1;align=center;verticalAlign=middle;resizable=0;points=[];autosize=1;strokeColor=none;fillColor=none;" parent="1" vertex="1">
                    <mxGeometry x="147.5" y="738" width="60" height="40" as="geometry"/>
                </mxCell>
                <mxCell id="DV-QQxApzA29Bk_mKNCQ-50" value="data arrivo" style="text;html=1;align=center;verticalAlign=middle;resizable=0;points=[];autosize=1;strokeColor=none;fillColor=none;" parent="1" vertex="1">
                    <mxGeometry x="82.5" y="778" width="80" height="30" as="geometry"/>
                </mxCell>
                <mxCell id="DV-QQxApzA29Bk_mKNCQ-51" value="" style="ellipse;whiteSpace=wrap;html=1;aspect=fixed;" parent="1" vertex="1">
                    <mxGeometry x="110" y="778" width="10" height="10" as="geometry"/>
                </mxCell>
                <mxCell id="DV-QQxApzA29Bk_mKNCQ-52" value="" style="ellipse;whiteSpace=wrap;html=1;aspect=fixed;" parent="1" vertex="1">
                    <mxGeometry x="147.5" y="748" width="10" height="10" as="geometry"/>
                </mxCell>
                <mxCell id="DV-QQxApzA29Bk_mKNCQ-54" value="" style="ellipse;whiteSpace=wrap;html=1;aspect=fixed;" parent="1" vertex="1">
                    <mxGeometry x="146.5" y="713" width="10" height="10" as="geometry"/>
                </mxCell>
                <mxCell id="DV-QQxApzA29Bk_mKNCQ-55" value="" style="ellipse;whiteSpace=wrap;html=1;aspect=fixed;" parent="1" vertex="1">
                    <mxGeometry x="135" y="680" width="10" height="10" as="geometry"/>
                </mxCell>
                <mxCell id="DV-QQxApzA29Bk_mKNCQ-56" value="" style="ellipse;whiteSpace=wrap;html=1;aspect=fixed;" parent="1" vertex="1">
                    <mxGeometry x="91.5" y="676" width="10" height="10" as="geometry"/>
                </mxCell>
                <mxCell id="DV-QQxApzA29Bk_mKNCQ-57" value="" style="endArrow=none;html=1;rounded=0;entryX=0.5;entryY=1;entryDx=0;entryDy=0;exitX=0.75;exitY=0;exitDx=0;exitDy=0;" parent="1" source="sGo81pWRSlFLJqfYXQ_L-42" target="DV-QQxApzA29Bk_mKNCQ-56" edge="1">
                    <mxGeometry width="50" height="50" relative="1" as="geometry">
                        <mxPoint x="50" y="740" as="sourcePoint"/>
                        <mxPoint x="100" y="690" as="targetPoint"/>
                    </mxGeometry>
                </mxCell>
                <mxCell id="DV-QQxApzA29Bk_mKNCQ-58" value="" style="endArrow=none;html=1;rounded=0;exitX=1.003;exitY=0.087;exitDx=0;exitDy=0;exitPerimeter=0;" parent="1" source="sGo81pWRSlFLJqfYXQ_L-42" edge="1">
                    <mxGeometry width="50" height="50" relative="1" as="geometry">
                        <mxPoint x="86" y="738" as="sourcePoint"/>
                        <mxPoint x="136" y="688" as="targetPoint"/>
                    </mxGeometry>
                </mxCell>
                <mxCell id="DV-QQxApzA29Bk_mKNCQ-59" value="" style="endArrow=none;html=1;rounded=0;exitX=1.003;exitY=0.353;exitDx=0;exitDy=0;exitPerimeter=0;" parent="1" source="sGo81pWRSlFLJqfYXQ_L-42" edge="1">
                    <mxGeometry width="50" height="50" relative="1" as="geometry">
                        <mxPoint x="97" y="769" as="sourcePoint"/>
                        <mxPoint x="147" y="719" as="targetPoint"/>
                    </mxGeometry>
                </mxCell>
                <mxCell id="DV-QQxApzA29Bk_mKNCQ-60" value="" style="endArrow=none;html=1;rounded=0;exitX=1.005;exitY=0.72;exitDx=0;exitDy=0;exitPerimeter=0;" parent="1" source="sGo81pWRSlFLJqfYXQ_L-42" edge="1">
                    <mxGeometry width="50" height="50" relative="1" as="geometry">
                        <mxPoint x="98" y="801" as="sourcePoint"/>
                        <mxPoint x="148" y="751" as="targetPoint"/>
                    </mxGeometry>
                </mxCell>
                <mxCell id="DV-QQxApzA29Bk_mKNCQ-61" value="" style="endArrow=none;html=1;rounded=0;entryX=0.91;entryY=0.997;entryDx=0;entryDy=0;entryPerimeter=0;" parent="1" target="sGo81pWRSlFLJqfYXQ_L-42" edge="1">
                    <mxGeometry width="50" height="50" relative="1" as="geometry">
                        <mxPoint x="114" y="778" as="sourcePoint"/>
                        <mxPoint x="164" y="728" as="targetPoint"/>
                    </mxGeometry>
                </mxCell>
                <mxCell id="DV-QQxApzA29Bk_mKNCQ-62" value="nome&amp;nbsp;&lt;div&gt;ditta&lt;/div&gt;" style="text;html=1;align=center;verticalAlign=middle;resizable=0;points=[];autosize=1;strokeColor=none;fillColor=none;" parent="1" vertex="1">
                    <mxGeometry x="0.5" y="1020" width="60" height="40" as="geometry"/>
                </mxCell>
                <mxCell id="DV-QQxApzA29Bk_mKNCQ-63" value="P.iva" style="text;html=1;align=center;verticalAlign=middle;resizable=0;points=[];autosize=1;strokeColor=none;fillColor=none;" parent="1" vertex="1">
                    <mxGeometry x="50" y="1020" width="50" height="30" as="geometry"/>
                </mxCell>
                <mxCell id="DV-QQxApzA29Bk_mKNCQ-64" value="Prodotto" style="text;html=1;align=center;verticalAlign=middle;resizable=0;points=[];autosize=1;strokeColor=none;fillColor=none;" parent="1" vertex="1">
                    <mxGeometry x="96.5" y="1025" width="70" height="30" as="geometry"/>
                </mxCell>
                <mxCell id="DV-QQxApzA29Bk_mKNCQ-65" value="" style="ellipse;whiteSpace=wrap;html=1;aspect=fixed;" parent="1" vertex="1">
                    <mxGeometry x="25" y="1020" width="10" height="10" as="geometry"/>
                </mxCell>
                <mxCell id="DV-QQxApzA29Bk_mKNCQ-66" value="" style="ellipse;whiteSpace=wrap;html=1;aspect=fixed;" parent="1" vertex="1">
                    <mxGeometry x="70" y="1020" width="10" height="10" as="geometry"/>
                </mxCell>
                <mxCell id="DV-QQxApzA29Bk_mKNCQ-67" value="" style="ellipse;whiteSpace=wrap;html=1;aspect=fixed;" parent="1" vertex="1">
                    <mxGeometry x="125" y="1025" width="10" height="10" as="geometry"/>
                </mxCell>
                <mxCell id="DV-QQxApzA29Bk_mKNCQ-68" value="" style="endArrow=none;html=1;rounded=0;exitX=0.498;exitY=-0.001;exitDx=0;exitDy=0;exitPerimeter=0;" parent="1" source="DV-QQxApzA29Bk_mKNCQ-62" edge="1">
                    <mxGeometry width="50" height="50" relative="1" as="geometry">
                        <mxPoint x="-20" y="1050" as="sourcePoint"/>
                        <mxPoint x="30" y="1000" as="targetPoint"/>
                    </mxGeometry>
                </mxCell>
                <mxCell id="DV-QQxApzA29Bk_mKNCQ-69" value="" style="endArrow=none;html=1;rounded=0;entryX=0.619;entryY=1.011;entryDx=0;entryDy=0;entryPerimeter=0;" parent="1" target="sGo81pWRSlFLJqfYXQ_L-47" edge="1">
                    <mxGeometry width="50" height="50" relative="1" as="geometry">
                        <mxPoint x="75" y="1020" as="sourcePoint"/>
                        <mxPoint x="125" y="970" as="targetPoint"/>
                    </mxGeometry>
                </mxCell>
                <mxCell id="DV-QQxApzA29Bk_mKNCQ-70" value="" style="endArrow=none;html=1;rounded=0;entryX=0.892;entryY=1.011;entryDx=0;entryDy=0;entryPerimeter=0;" parent="1" target="sGo81pWRSlFLJqfYXQ_L-47" edge="1">
                    <mxGeometry width="50" height="50" relative="1" as="geometry">
                        <mxPoint x="130" y="1025" as="sourcePoint"/>
                        <mxPoint x="180" y="975" as="targetPoint"/>
                    </mxGeometry>
                </mxCell>
                <mxCell id="DV-QQxApzA29Bk_mKNCQ-71" value="nome&lt;div&gt;ditta&lt;/div&gt;" style="text;html=1;align=center;verticalAlign=middle;resizable=0;points=[];autosize=1;strokeColor=none;fillColor=none;" parent="1" vertex="1">
                    <mxGeometry x="375" y="985" width="50" height="40" as="geometry"/>
                </mxCell>
                <mxCell id="DV-QQxApzA29Bk_mKNCQ-72" value="quantitÃ &lt;div&gt;prodotto&lt;/div&gt;" style="text;html=1;align=center;verticalAlign=middle;resizable=0;points=[];autosize=1;strokeColor=none;fillColor=none;" parent="1" vertex="1">
                    <mxGeometry x="405" y="1015" width="70" height="40" as="geometry"/>
                </mxCell>
                <mxCell id="DV-QQxApzA29Bk_mKNCQ-76" value="data documento" style="text;html=1;align=center;verticalAlign=middle;resizable=0;points=[];autosize=1;strokeColor=none;fillColor=none;" parent="1" vertex="1">
                    <mxGeometry x="577" y="958" width="110" height="30" as="geometry"/>
                </mxCell>
                <mxCell id="DV-QQxApzA29Bk_mKNCQ-77" value="data inizio trasporto" style="text;html=1;align=center;verticalAlign=middle;resizable=0;points=[];autosize=1;strokeColor=none;fillColor=none;" parent="1" vertex="1">
                    <mxGeometry x="577" y="928" width="130" height="30" as="geometry"/>
                </mxCell>
                <mxCell id="DV-QQxApzA29Bk_mKNCQ-78" value="" style="ellipse;whiteSpace=wrap;html=1;aspect=fixed;" parent="1" vertex="1">
                    <mxGeometry x="395" y="985" width="10" height="10" as="geometry"/>
                </mxCell>
                <mxCell id="DV-QQxApzA29Bk_mKNCQ-79" value="" style="ellipse;whiteSpace=wrap;html=1;aspect=fixed;" parent="1" vertex="1">
                    <mxGeometry x="432" y="1015" width="10" height="10" as="geometry"/>
                </mxCell>
                <mxCell id="DV-QQxApzA29Bk_mKNCQ-80" value="" style="ellipse;whiteSpace=wrap;html=1;aspect=fixed;" parent="1" vertex="1">
                    <mxGeometry x="496" y="1020" width="10" height="10" as="geometry"/>
                </mxCell>
                <mxCell id="DV-QQxApzA29Bk_mKNCQ-81" value="" style="ellipse;whiteSpace=wrap;html=1;aspect=fixed;" parent="1" vertex="1">
                    <mxGeometry x="552" y="1025" width="10" height="10" as="geometry"/>
                </mxCell>
                <mxCell id="DV-QQxApzA29Bk_mKNCQ-82" value="" style="ellipse;whiteSpace=wrap;html=1;aspect=fixed;" parent="1" vertex="1">
                    <mxGeometry x="573" y="1010" width="10" height="10" as="geometry"/>
                </mxCell>
                <mxCell id="DV-QQxApzA29Bk_mKNCQ-83" value="" style="ellipse;whiteSpace=wrap;html=1;aspect=fixed;" parent="1" vertex="1">
                    <mxGeometry x="577" y="970" width="10" height="10" as="geometry"/>
                </mxCell>
                <mxCell id="DV-QQxApzA29Bk_mKNCQ-84" value="" style="ellipse;whiteSpace=wrap;html=1;aspect=fixed;" parent="1" vertex="1">
                    <mxGeometry x="577" y="940" width="10" height="10" as="geometry"/>
                </mxCell>
                <mxCell id="DV-QQxApzA29Bk_mKNCQ-85" value="" style="endArrow=none;html=1;rounded=0;entryX=-0.009;entryY=0.8;entryDx=0;entryDy=0;entryPerimeter=0;" parent="1" target="sGo81pWRSlFLJqfYXQ_L-51" edge="1">
                    <mxGeometry width="50" height="50" relative="1" as="geometry">
                        <mxPoint x="405" y="988" as="sourcePoint"/>
                        <mxPoint x="455" y="938" as="targetPoint"/>
                    </mxGeometry>
                </mxCell>
                <mxCell id="DV-QQxApzA29Bk_mKNCQ-86" value="" style="endArrow=none;html=1;rounded=0;entryX=0.079;entryY=1.002;entryDx=0;entryDy=0;entryPerimeter=0;" parent="1" target="sGo81pWRSlFLJqfYXQ_L-51" edge="1">
                    <mxGeometry width="50" height="50" relative="1" as="geometry">
                        <mxPoint x="441" y="1017" as="sourcePoint"/>
                        <mxPoint x="491" y="967" as="targetPoint"/>
                    </mxGeometry>
                </mxCell>
                <mxCell id="DV-QQxApzA29Bk_mKNCQ-87" value="" style="endArrow=none;html=1;rounded=0;entryX=0.5;entryY=1;entryDx=0;entryDy=0;" parent="1" target="sGo81pWRSlFLJqfYXQ_L-51" edge="1">
                    <mxGeometry width="50" height="50" relative="1" as="geometry">
                        <mxPoint x="501" y="1020" as="sourcePoint"/>
                        <mxPoint x="551" y="970" as="targetPoint"/>
                    </mxGeometry>
                </mxCell>
                <mxCell id="DV-QQxApzA29Bk_mKNCQ-88" value="" style="endArrow=none;html=1;rounded=0;entryX=0.871;entryY=1.011;entryDx=0;entryDy=0;entryPerimeter=0;" parent="1" target="sGo81pWRSlFLJqfYXQ_L-51" edge="1">
                    <mxGeometry width="50" height="50" relative="1" as="geometry">
                        <mxPoint x="556" y="1025" as="sourcePoint"/>
                        <mxPoint x="606" y="975" as="targetPoint"/>
                    </mxGeometry>
                </mxCell>
                <mxCell id="DV-QQxApzA29Bk_mKNCQ-89" value="" style="endArrow=none;html=1;rounded=0;exitX=0.998;exitY=0.873;exitDx=0;exitDy=0;exitPerimeter=0;" parent="1" source="sGo81pWRSlFLJqfYXQ_L-51" edge="1">
                    <mxGeometry width="50" height="50" relative="1" as="geometry">
                        <mxPoint x="524" y="1062" as="sourcePoint"/>
                        <mxPoint x="574" y="1012" as="targetPoint"/>
                    </mxGeometry>
                </mxCell>
                <mxCell id="DV-QQxApzA29Bk_mKNCQ-90" value="" style="endArrow=none;html=1;rounded=0;exitX=0.998;exitY=0.571;exitDx=0;exitDy=0;exitPerimeter=0;" parent="1" source="sGo81pWRSlFLJqfYXQ_L-51" edge="1">
                    <mxGeometry width="50" height="50" relative="1" as="geometry">
                        <mxPoint x="527" y="1024" as="sourcePoint"/>
                        <mxPoint x="577" y="974" as="targetPoint"/>
                    </mxGeometry>
                </mxCell>
                <mxCell id="DV-QQxApzA29Bk_mKNCQ-91" value="" style="endArrow=none;html=1;rounded=0;exitX=0.998;exitY=0.159;exitDx=0;exitDy=0;exitPerimeter=0;" parent="1" source="sGo81pWRSlFLJqfYXQ_L-51" edge="1">
                    <mxGeometry width="50" height="50" relative="1" as="geometry">
                        <mxPoint x="527" y="996" as="sourcePoint"/>
                        <mxPoint x="577" y="946" as="targetPoint"/>
                    </mxGeometry>
                </mxCell>
                <mxCell id="DV-QQxApzA29Bk_mKNCQ-92" value="nome&lt;div&gt;servizio&lt;/div&gt;" style="text;html=1;align=center;verticalAlign=middle;resizable=0;points=[];autosize=1;strokeColor=none;fillColor=none;" parent="1" vertex="1">
                    <mxGeometry x="192.5" y="780" width="60" height="40" as="geometry"/>
                </mxCell>
                <mxCell id="DV-QQxApzA29Bk_mKNCQ-93" value="giorno" style="text;html=1;align=center;verticalAlign=middle;resizable=0;points=[];autosize=1;strokeColor=none;fillColor=none;" parent="1" vertex="1">
                    <mxGeometry x="235" y="785" width="60" height="30" as="geometry"/>
                </mxCell>
                <mxCell id="DV-QQxApzA29Bk_mKNCQ-94" value="badge&amp;nbsp;&lt;div&gt;farmacista&lt;/div&gt;" style="text;html=1;align=center;verticalAlign=middle;resizable=0;points=[];autosize=1;strokeColor=none;fillColor=none;" parent="1" vertex="1">
                    <mxGeometry x="275" y="785" width="80" height="40" as="geometry"/>
                </mxCell>
                <mxCell id="DV-QQxApzA29Bk_mKNCQ-95" value="fascia&lt;div&gt;orario&lt;/div&gt;" style="text;html=1;align=center;verticalAlign=middle;resizable=0;points=[];autosize=1;strokeColor=none;fillColor=none;" parent="1" vertex="1">
                    <mxGeometry x="365" y="775" width="50" height="40" as="geometry"/>
                </mxCell>
                <mxCell id="DV-QQxApzA29Bk_mKNCQ-96" value="costo" style="text;html=1;align=center;verticalAlign=middle;resizable=0;points=[];autosize=1;strokeColor=none;fillColor=none;" parent="1" vertex="1">
                    <mxGeometry x="375" y="676" width="50" height="30" as="geometry"/>
                </mxCell>
                <mxCell id="DV-QQxApzA29Bk_mKNCQ-97" value="" style="ellipse;whiteSpace=wrap;html=1;aspect=fixed;" parent="1" vertex="1">
                    <mxGeometry x="217.5" y="780" width="10" height="10" as="geometry"/>
                </mxCell>
                <mxCell id="DV-QQxApzA29Bk_mKNCQ-98" value="" style="ellipse;whiteSpace=wrap;html=1;aspect=fixed;" parent="1" vertex="1">
                    <mxGeometry x="260" y="786" width="10" height="10" as="geometry"/>
                </mxCell>
                <mxCell id="DV-QQxApzA29Bk_mKNCQ-99" value="" style="ellipse;whiteSpace=wrap;html=1;aspect=fixed;" parent="1" vertex="1">
                    <mxGeometry x="308" y="784" width="10" height="10" as="geometry"/>
                </mxCell>
                <mxCell id="DV-QQxApzA29Bk_mKNCQ-100" value="" style="ellipse;whiteSpace=wrap;html=1;aspect=fixed;" parent="1" vertex="1">
                    <mxGeometry x="377" y="774" width="10" height="10" as="geometry"/>
                </mxCell>
                <mxCell id="DV-QQxApzA29Bk_mKNCQ-101" value="" style="ellipse;whiteSpace=wrap;html=1;aspect=fixed;" parent="1" vertex="1">
                    <mxGeometry x="395" y="698" width="10" height="10" as="geometry"/>
                </mxCell>
                <mxCell id="DV-QQxApzA29Bk_mKNCQ-102" value="" style="endArrow=none;html=1;rounded=0;entryX=0.038;entryY=1;entryDx=0;entryDy=0;entryPerimeter=0;" parent="1" edge="1">
                    <mxGeometry width="50" height="50" relative="1" as="geometry">
                        <mxPoint x="224" y="780" as="sourcePoint"/>
                        <mxPoint x="253.55999999999995" y="756.9999999999999" as="targetPoint"/>
                    </mxGeometry>
                </mxCell>
                <mxCell id="DV-QQxApzA29Bk_mKNCQ-103" value="" style="endArrow=none;html=1;rounded=0;entryX=0.193;entryY=1.005;entryDx=0;entryDy=0;entryPerimeter=0;exitX=0.5;exitY=0.044;exitDx=0;exitDy=0;exitPerimeter=0;" parent="1" source="DV-QQxApzA29Bk_mKNCQ-93" target="sGo81pWRSlFLJqfYXQ_L-104" edge="1">
                    <mxGeometry width="50" height="50" relative="1" as="geometry">
                        <mxPoint x="260" y="786" as="sourcePoint"/>
                        <mxPoint x="310" y="736" as="targetPoint"/>
                    </mxGeometry>
                </mxCell>
                <mxCell id="DV-QQxApzA29Bk_mKNCQ-104" value="" style="endArrow=none;html=1;rounded=0;entryX=0.547;entryY=1.005;entryDx=0;entryDy=0;entryPerimeter=0;" parent="1" target="sGo81pWRSlFLJqfYXQ_L-104" edge="1">
                    <mxGeometry width="50" height="50" relative="1" as="geometry">
                        <mxPoint x="313" y="785" as="sourcePoint"/>
                        <mxPoint x="363" y="735" as="targetPoint"/>
                    </mxGeometry>
                </mxCell>
                <mxCell id="DV-QQxApzA29Bk_mKNCQ-105" value="" style="endArrow=none;html=1;rounded=0;entryX=0.908;entryY=1.009;entryDx=0;entryDy=0;entryPerimeter=0;" parent="1" target="sGo81pWRSlFLJqfYXQ_L-104" edge="1">
                    <mxGeometry width="50" height="50" relative="1" as="geometry">
                        <mxPoint x="379" y="775" as="sourcePoint"/>
                        <mxPoint x="429" y="725" as="targetPoint"/>
                    </mxGeometry>
                </mxCell>
                <mxCell id="DV-QQxApzA29Bk_mKNCQ-106" value="" style="endArrow=none;html=1;rounded=0;exitX=1;exitY=0.25;exitDx=0;exitDy=0;entryX=0.403;entryY=0.956;entryDx=0;entryDy=0;entryPerimeter=0;" parent="1" source="sGo81pWRSlFLJqfYXQ_L-104" target="DV-QQxApzA29Bk_mKNCQ-96" edge="1">
                    <mxGeometry width="50" height="50" relative="1" as="geometry">
                        <mxPoint x="350" y="758" as="sourcePoint"/>
                        <mxPoint x="400" y="708" as="targetPoint"/>
                    </mxGeometry>
                </mxCell>
                <mxCell id="DV-QQxApzA29Bk_mKNCQ-107" value="giorno" style="text;html=1;align=center;verticalAlign=middle;resizable=0;points=[];autosize=1;strokeColor=none;fillColor=none;" parent="1" vertex="1">
                    <mxGeometry x="552" y="805" width="60" height="30" as="geometry"/>
                </mxCell>
                <mxCell id="DV-QQxApzA29Bk_mKNCQ-108" value="orario" style="text;html=1;align=center;verticalAlign=middle;resizable=0;points=[];autosize=1;strokeColor=none;fillColor=none;" parent="1" vertex="1">
                    <mxGeometry x="610.5" y="830" width="50" height="30" as="geometry"/>
                </mxCell>
                <mxCell id="DV-QQxApzA29Bk_mKNCQ-109" value="nome&lt;div&gt;servizio&lt;/div&gt;" style="text;html=1;align=center;verticalAlign=middle;resizable=0;points=[];autosize=1;strokeColor=none;fillColor=none;" parent="1" vertex="1">
                    <mxGeometry x="675.5" y="830" width="60" height="40" as="geometry"/>
                </mxCell>
                <mxCell id="DV-QQxApzA29Bk_mKNCQ-110" value="nome&amp;nbsp;&lt;div&gt;cliente&lt;/div&gt;" style="text;html=1;align=center;verticalAlign=middle;resizable=0;points=[];autosize=1;strokeColor=none;fillColor=none;" parent="1" vertex="1">
                    <mxGeometry x="767" y="830" width="60" height="40" as="geometry"/>
                </mxCell>
                <mxCell id="DV-QQxApzA29Bk_mKNCQ-111" value="" style="ellipse;whiteSpace=wrap;html=1;aspect=fixed;" parent="1" vertex="1">
                    <mxGeometry x="576" y="804" width="10" height="10" as="geometry"/>
                </mxCell>
                <mxCell id="DV-QQxApzA29Bk_mKNCQ-113" value="" style="ellipse;whiteSpace=wrap;html=1;aspect=fixed;" parent="1" vertex="1">
                    <mxGeometry x="700.5" y="830" width="10" height="10" as="geometry"/>
                </mxCell>
                <mxCell id="DV-QQxApzA29Bk_mKNCQ-120" value="nome" style="text;html=1;align=center;verticalAlign=middle;resizable=0;points=[];autosize=1;strokeColor=none;fillColor=none;" parent="1" vertex="1">
                    <mxGeometry x="1140" y="656" width="50" height="30" as="geometry"/>
                </mxCell>
                <mxCell id="DV-QQxApzA29Bk_mKNCQ-121" value="cognome" style="text;html=1;align=center;verticalAlign=middle;resizable=0;points=[];autosize=1;strokeColor=none;fillColor=none;" parent="1" vertex="1">
                    <mxGeometry x="1180" y="676" width="70" height="30" as="geometry"/>
                </mxCell>
                <mxCell id="DV-QQxApzA29Bk_mKNCQ-122" value="codice fiscale" style="text;html=1;align=center;verticalAlign=middle;resizable=0;points=[];autosize=1;strokeColor=none;fillColor=none;" parent="1" vertex="1">
                    <mxGeometry x="1180" y="708" width="100" height="30" as="geometry"/>
                </mxCell>
                <mxCell id="DV-QQxApzA29Bk_mKNCQ-123" value="etÃ " style="text;html=1;align=center;verticalAlign=middle;resizable=0;points=[];autosize=1;strokeColor=none;fillColor=none;" parent="1" vertex="1">
                    <mxGeometry x="1180" y="742" width="40" height="30" as="geometry"/>
                </mxCell>
                <mxCell id="DV-QQxApzA29Bk_mKNCQ-124" value="" style="ellipse;whiteSpace=wrap;html=1;aspect=fixed;" parent="1" vertex="1">
                    <mxGeometry x="1181" y="753" width="10" height="10" as="geometry"/>
                </mxCell>
                <mxCell id="DV-QQxApzA29Bk_mKNCQ-126" value="" style="ellipse;whiteSpace=wrap;html=1;aspect=fixed;" parent="1" vertex="1">
                    <mxGeometry x="1183" y="719" width="10" height="10" as="geometry"/>
                </mxCell>
                <mxCell id="DV-QQxApzA29Bk_mKNCQ-127" value="" style="ellipse;whiteSpace=wrap;html=1;aspect=fixed;" parent="1" vertex="1">
                    <mxGeometry x="1179" y="688" width="10" height="10" as="geometry"/>
                </mxCell>
                <mxCell id="DV-QQxApzA29Bk_mKNCQ-128" value="" style="ellipse;whiteSpace=wrap;html=1;aspect=fixed;" parent="1" vertex="1">
                    <mxGeometry x="1139" y="668" width="10" height="10" as="geometry"/>
                </mxCell>
                <mxCell id="DV-QQxApzA29Bk_mKNCQ-129" value="" style="endArrow=none;html=1;rounded=0;exitX=0.731;exitY=0.002;exitDx=0;exitDy=0;exitPerimeter=0;" parent="1" source="sGo81pWRSlFLJqfYXQ_L-38" edge="1">
                    <mxGeometry width="50" height="50" relative="1" as="geometry">
                        <mxPoint x="1094" y="728" as="sourcePoint"/>
                        <mxPoint x="1144" y="678" as="targetPoint"/>
                    </mxGeometry>
                </mxCell>
                <mxCell id="DV-QQxApzA29Bk_mKNCQ-130" value="" style="endArrow=none;html=1;rounded=0;exitX=0.996;exitY=0.17;exitDx=0;exitDy=0;exitPerimeter=0;" parent="1" source="sGo81pWRSlFLJqfYXQ_L-38" edge="1">
                    <mxGeometry width="50" height="50" relative="1" as="geometry">
                        <mxPoint x="1129" y="745" as="sourcePoint"/>
                        <mxPoint x="1179" y="695" as="targetPoint"/>
                    </mxGeometry>
                </mxCell>
                <mxCell id="DV-QQxApzA29Bk_mKNCQ-131" value="" style="endArrow=none;html=1;rounded=0;exitX=1;exitY=0.5;exitDx=0;exitDy=0;" parent="1" source="sGo81pWRSlFLJqfYXQ_L-38" edge="1">
                    <mxGeometry width="50" height="50" relative="1" as="geometry">
                        <mxPoint x="1133" y="775" as="sourcePoint"/>
                        <mxPoint x="1183" y="725" as="targetPoint"/>
                    </mxGeometry>
                </mxCell>
                <mxCell id="DV-QQxApzA29Bk_mKNCQ-132" value="" style="endArrow=none;html=1;rounded=0;exitX=1.002;exitY=0.83;exitDx=0;exitDy=0;exitPerimeter=0;" parent="1" source="sGo81pWRSlFLJqfYXQ_L-38" edge="1">
                    <mxGeometry width="50" height="50" relative="1" as="geometry">
                        <mxPoint x="1131" y="807" as="sourcePoint"/>
                        <mxPoint x="1181" y="757" as="targetPoint"/>
                    </mxGeometry>
                </mxCell>
                <mxCell id="DV-QQxApzA29Bk_mKNCQ-133" value="dottore" style="text;html=1;align=center;verticalAlign=middle;resizable=0;points=[];autosize=1;strokeColor=none;fillColor=none;" parent="1" vertex="1">
                    <mxGeometry x="1189" y="930" width="60" height="30" as="geometry"/>
                </mxCell>
                <mxCell id="DV-QQxApzA29Bk_mKNCQ-134" value="nome cliente" style="text;html=1;align=center;verticalAlign=middle;resizable=0;points=[];autosize=1;strokeColor=none;fillColor=none;" parent="1" vertex="1">
                    <mxGeometry x="1185" y="970" width="90" height="30" as="geometry"/>
                </mxCell>
                <mxCell id="DV-QQxApzA29Bk_mKNCQ-135" value="medicinale" style="text;html=1;align=center;verticalAlign=middle;resizable=0;points=[];autosize=1;strokeColor=none;fillColor=none;" parent="1" vertex="1">
                    <mxGeometry x="1180" y="1005" width="80" height="30" as="geometry"/>
                </mxCell>
                <mxCell id="DV-QQxApzA29Bk_mKNCQ-136" value="data" style="text;html=1;align=center;verticalAlign=middle;resizable=0;points=[];autosize=1;strokeColor=none;fillColor=none;" parent="1" vertex="1">
                    <mxGeometry x="1111" y="1020" width="50" height="30" as="geometry"/>
                </mxCell>
                <mxCell id="DV-QQxApzA29Bk_mKNCQ-137" value="acquisto&lt;div&gt;periodico&lt;/div&gt;" style="text;html=1;align=center;verticalAlign=middle;resizable=0;points=[];autosize=1;strokeColor=none;fillColor=none;" parent="1" vertex="1">
                    <mxGeometry x="1020" y="1020" width="70" height="40" as="geometry"/>
                </mxCell>
                <mxCell id="DV-QQxApzA29Bk_mKNCQ-138" value="" style="ellipse;whiteSpace=wrap;html=1;aspect=fixed;" parent="1" vertex="1">
                    <mxGeometry x="1050" y="1018" width="10" height="10" as="geometry"/>
                </mxCell>
                <mxCell id="DV-QQxApzA29Bk_mKNCQ-139" value="" style="ellipse;whiteSpace=wrap;html=1;aspect=fixed;" parent="1" vertex="1">
                    <mxGeometry x="1130" y="1018" width="10" height="10" as="geometry"/>
                </mxCell>
                <mxCell id="DV-QQxApzA29Bk_mKNCQ-140" value="" style="ellipse;whiteSpace=wrap;html=1;aspect=fixed;" parent="1" vertex="1">
                    <mxGeometry x="1180" y="1008" width="10" height="10" as="geometry"/>
                </mxCell>
                <mxCell id="DV-QQxApzA29Bk_mKNCQ-141" value="" style="ellipse;whiteSpace=wrap;html=1;aspect=fixed;" parent="1" vertex="1">
                    <mxGeometry x="1185" y="980" width="10" height="10" as="geometry"/>
                </mxCell>
                <mxCell id="DV-QQxApzA29Bk_mKNCQ-142" value="" style="ellipse;whiteSpace=wrap;html=1;aspect=fixed;" parent="1" vertex="1">
                    <mxGeometry x="1189" y="940" width="10" height="10" as="geometry"/>
                </mxCell>
                <mxCell id="DV-QQxApzA29Bk_mKNCQ-143" value="" style="endArrow=none;html=1;rounded=0;entryX=0.165;entryY=1.008;entryDx=0;entryDy=0;entryPerimeter=0;" parent="1" target="sGo81pWRSlFLJqfYXQ_L-115" edge="1">
                    <mxGeometry width="50" height="50" relative="1" as="geometry">
                        <mxPoint x="1055" y="1018" as="sourcePoint"/>
                        <mxPoint x="1105" y="968" as="targetPoint"/>
                    </mxGeometry>
                </mxCell>
                <mxCell id="DV-QQxApzA29Bk_mKNCQ-144" value="" style="endArrow=none;html=1;rounded=0;entryX=0.603;entryY=1.004;entryDx=0;entryDy=0;entryPerimeter=0;" parent="1" target="sGo81pWRSlFLJqfYXQ_L-115" edge="1">
                    <mxGeometry width="50" height="50" relative="1" as="geometry">
                        <mxPoint x="1135" y="1018" as="sourcePoint"/>
                        <mxPoint x="1185" y="968" as="targetPoint"/>
                    </mxGeometry>
                </mxCell>
                <mxCell id="DV-QQxApzA29Bk_mKNCQ-145" value="" style="endArrow=none;html=1;rounded=0;entryX=0.967;entryY=1.01;entryDx=0;entryDy=0;entryPerimeter=0;" parent="1" target="sGo81pWRSlFLJqfYXQ_L-115" edge="1">
                    <mxGeometry width="50" height="50" relative="1" as="geometry">
                        <mxPoint x="1180" y="1010" as="sourcePoint"/>
                        <mxPoint x="1230" y="960" as="targetPoint"/>
                    </mxGeometry>
                </mxCell>
                <mxCell id="DV-QQxApzA29Bk_mKNCQ-146" value="" style="endArrow=none;html=1;rounded=0;exitX=1.003;exitY=0.702;exitDx=0;exitDy=0;exitPerimeter=0;" parent="1" source="sGo81pWRSlFLJqfYXQ_L-115" edge="1">
                    <mxGeometry width="50" height="50" relative="1" as="geometry">
                        <mxPoint x="1135" y="1035" as="sourcePoint"/>
                        <mxPoint x="1185" y="985" as="targetPoint"/>
                    </mxGeometry>
                </mxCell>
                <mxCell id="DV-QQxApzA29Bk_mKNCQ-147" value="" style="endArrow=none;html=1;rounded=0;exitX=1.006;exitY=0.21;exitDx=0;exitDy=0;exitPerimeter=0;" parent="1" source="sGo81pWRSlFLJqfYXQ_L-115" edge="1">
                    <mxGeometry width="50" height="50" relative="1" as="geometry">
                        <mxPoint x="1139" y="995" as="sourcePoint"/>
                        <mxPoint x="1189" y="945" as="targetPoint"/>
                    </mxGeometry>
                </mxCell>
                <mxCell id="DV-QQxApzA29Bk_mKNCQ-148" value="ruolo" style="text;html=1;align=center;verticalAlign=middle;resizable=0;points=[];autosize=1;strokeColor=none;fillColor=none;" parent="1" vertex="1">
                    <mxGeometry x="217.5" y="282.5" width="50" height="30" as="geometry"/>
                </mxCell>
                <mxCell id="DV-QQxApzA29Bk_mKNCQ-151" value="nome" style="text;html=1;align=center;verticalAlign=middle;resizable=0;points=[];autosize=1;strokeColor=none;fillColor=none;" parent="1" vertex="1">
                    <mxGeometry x="1055" y="366" width="50" height="30" as="geometry"/>
                </mxCell>
                <mxCell id="DV-QQxApzA29Bk_mKNCQ-152" value="id prodotto" style="text;html=1;align=center;verticalAlign=middle;resizable=0;points=[];autosize=1;strokeColor=none;fillColor=none;" parent="1" vertex="1">
                    <mxGeometry x="1078" y="352" width="80" height="30" as="geometry"/>
                </mxCell>
                <mxCell id="DV-QQxApzA29Bk_mKNCQ-154" value="tipo&lt;div&gt;assunzione&lt;/div&gt;" style="text;html=1;align=center;verticalAlign=middle;resizable=0;points=[];autosize=1;strokeColor=none;fillColor=none;" parent="1" vertex="1">
                    <mxGeometry x="985" y="348" width="80" height="40" as="geometry"/>
                </mxCell>
                <mxCell id="DV-QQxApzA29Bk_mKNCQ-155" value="quantitÃ &lt;div&gt;confezione&lt;/div&gt;" style="text;html=1;align=center;verticalAlign=middle;resizable=0;points=[];autosize=1;strokeColor=none;fillColor=none;" parent="1" vertex="1">
                    <mxGeometry x="917.5" y="355" width="80" height="40" as="geometry"/>
                </mxCell>
                <mxCell id="DV-QQxApzA29Bk_mKNCQ-156" value="prezzo" style="text;html=1;align=center;verticalAlign=middle;resizable=0;points=[];autosize=1;strokeColor=none;fillColor=none;" parent="1" vertex="1">
                    <mxGeometry x="929" y="397" width="60" height="30" as="geometry"/>
                </mxCell>
                <mxCell id="DV-QQxApzA29Bk_mKNCQ-157" value="scadenza" style="text;html=1;align=center;verticalAlign=middle;resizable=0;points=[];autosize=1;strokeColor=none;fillColor=none;" parent="1" vertex="1">
                    <mxGeometry x="1139.5" y="384" width="70" height="30" as="geometry"/>
                </mxCell>
                <mxCell id="DV-QQxApzA29Bk_mKNCQ-159" value="" style="ellipse;whiteSpace=wrap;html=1;aspect=fixed;" parent="1" vertex="1">
                    <mxGeometry x="955" y="418" width="10" height="10" as="geometry"/>
                </mxCell>
                <mxCell id="DV-QQxApzA29Bk_mKNCQ-160" value="" style="ellipse;whiteSpace=wrap;html=1;aspect=fixed;" parent="1" vertex="1">
                    <mxGeometry x="970" y="388" width="10" height="10" as="geometry"/>
                </mxCell>
                <mxCell id="DV-QQxApzA29Bk_mKNCQ-161" value="" style="ellipse;whiteSpace=wrap;html=1;aspect=fixed;" parent="1" vertex="1">
                    <mxGeometry x="1030" y="382" width="10" height="10" as="geometry"/>
                </mxCell>
                <mxCell id="DV-QQxApzA29Bk_mKNCQ-162" value="" style="ellipse;whiteSpace=wrap;html=1;aspect=fixed;" parent="1" vertex="1">
                    <mxGeometry x="1075" y="387" width="10" height="10" as="geometry"/>
                </mxCell>
                <mxCell id="DV-QQxApzA29Bk_mKNCQ-163" value="" style="ellipse;whiteSpace=wrap;html=1;aspect=fixed;" parent="1" vertex="1">
                    <mxGeometry x="1119.5" y="374" width="10" height="10" as="geometry"/>
                </mxCell>
                <mxCell id="DV-QQxApzA29Bk_mKNCQ-164" value="" style="ellipse;whiteSpace=wrap;html=1;aspect=fixed;" parent="1" vertex="1">
                    <mxGeometry x="1160" y="406" width="10" height="10" as="geometry"/>
                </mxCell>
                <mxCell id="DV-QQxApzA29Bk_mKNCQ-165" value="" style="endArrow=none;html=1;rounded=0;entryX=-0.001;entryY=0.297;entryDx=0;entryDy=0;entryPerimeter=0;" parent="1" target="sGo81pWRSlFLJqfYXQ_L-19" edge="1">
                    <mxGeometry width="50" height="50" relative="1" as="geometry">
                        <mxPoint x="965" y="424" as="sourcePoint"/>
                        <mxPoint x="1015" y="374" as="targetPoint"/>
                    </mxGeometry>
                </mxCell>
                <mxCell id="DV-QQxApzA29Bk_mKNCQ-166" value="" style="endArrow=none;html=1;rounded=0;exitX=-0.009;exitY=0.066;exitDx=0;exitDy=0;exitPerimeter=0;entryX=1;entryY=0.5;entryDx=0;entryDy=0;" parent="1" source="sGo81pWRSlFLJqfYXQ_L-19" target="DV-QQxApzA29Bk_mKNCQ-160" edge="1">
                    <mxGeometry width="50" height="50" relative="1" as="geometry">
                        <mxPoint x="937" y="444" as="sourcePoint"/>
                        <mxPoint x="987" y="394" as="targetPoint"/>
                    </mxGeometry>
                </mxCell>
                <mxCell id="DV-QQxApzA29Bk_mKNCQ-167" value="" style="endArrow=none;html=1;rounded=0;exitX=0.333;exitY=-0.001;exitDx=0;exitDy=0;exitPerimeter=0;entryX=0.5;entryY=1;entryDx=0;entryDy=0;" parent="1" source="sGo81pWRSlFLJqfYXQ_L-19" target="DV-QQxApzA29Bk_mKNCQ-161" edge="1">
                    <mxGeometry width="50" height="50" relative="1" as="geometry">
                        <mxPoint x="990" y="448" as="sourcePoint"/>
                        <mxPoint x="1040" y="398" as="targetPoint"/>
                    </mxGeometry>
                </mxCell>
                <mxCell id="DV-QQxApzA29Bk_mKNCQ-168" value="" style="endArrow=none;html=1;rounded=0;exitX=0.666;exitY=0.002;exitDx=0;exitDy=0;exitPerimeter=0;" parent="1" source="sGo81pWRSlFLJqfYXQ_L-19" edge="1">
                    <mxGeometry width="50" height="50" relative="1" as="geometry">
                        <mxPoint x="1031" y="447" as="sourcePoint"/>
                        <mxPoint x="1081" y="397" as="targetPoint"/>
                    </mxGeometry>
                </mxCell>
                <mxCell id="DV-QQxApzA29Bk_mKNCQ-169" value="" style="endArrow=none;html=1;rounded=0;exitX=0.889;exitY=0.002;exitDx=0;exitDy=0;exitPerimeter=0;" parent="1" source="sGo81pWRSlFLJqfYXQ_L-19" edge="1">
                    <mxGeometry width="50" height="50" relative="1" as="geometry">
                        <mxPoint x="1075" y="434" as="sourcePoint"/>
                        <mxPoint x="1125" y="384" as="targetPoint"/>
                    </mxGeometry>
                </mxCell>
                <mxCell id="DV-QQxApzA29Bk_mKNCQ-170" value="" style="endArrow=none;html=1;rounded=0;exitX=1.001;exitY=0.159;exitDx=0;exitDy=0;exitPerimeter=0;" parent="1" source="sGo81pWRSlFLJqfYXQ_L-19" edge="1">
                    <mxGeometry width="50" height="50" relative="1" as="geometry">
                        <mxPoint x="1111" y="464" as="sourcePoint"/>
                        <mxPoint x="1161" y="414" as="targetPoint"/>
                    </mxGeometry>
                </mxCell>
                <mxCell id="DV-QQxApzA29Bk_mKNCQ-171" value="data" style="text;html=1;align=center;verticalAlign=middle;resizable=0;points=[];autosize=1;strokeColor=none;fillColor=none;" parent="1" vertex="1">
                    <mxGeometry x="481" y="382" width="50" height="30" as="geometry"/>
                </mxCell>
                <mxCell id="DV-QQxApzA29Bk_mKNCQ-172" value="c.f.&lt;div&gt;&amp;nbsp;cliente&lt;/div&gt;" style="text;html=1;align=center;verticalAlign=middle;resizable=0;points=[];autosize=1;strokeColor=none;fillColor=none;" parent="1" vertex="1">
                    <mxGeometry x="531" y="348" width="60" height="40" as="geometry"/>
                </mxCell>
                <mxCell id="DV-QQxApzA29Bk_mKNCQ-173" value="id&lt;div&gt;vendita&lt;/div&gt;" style="text;html=1;align=center;verticalAlign=middle;resizable=0;points=[];autosize=1;strokeColor=none;fillColor=none;" parent="1" vertex="1">
                    <mxGeometry x="596" y="355" width="60" height="40" as="geometry"/>
                </mxCell>
                <mxCell id="DV-QQxApzA29Bk_mKNCQ-174" value="farmacista&lt;div&gt;servente&lt;/div&gt;" style="text;html=1;align=center;verticalAlign=middle;resizable=0;points=[];autosize=1;strokeColor=none;fillColor=none;" parent="1" vertex="1">
                    <mxGeometry x="676" y="369" width="80" height="40" as="geometry"/>
                </mxCell>
                <mxCell id="DV-QQxApzA29Bk_mKNCQ-175" value="totale spesa" style="text;html=1;align=center;verticalAlign=middle;resizable=0;points=[];autosize=1;strokeColor=none;fillColor=none;" parent="1" vertex="1">
                    <mxGeometry x="616" y="503" width="90" height="30" as="geometry"/>
                </mxCell>
                <mxCell id="DV-QQxApzA29Bk_mKNCQ-176" value="" style="ellipse;whiteSpace=wrap;html=1;aspect=fixed;" parent="1" vertex="1">
                    <mxGeometry x="501" y="403" width="10" height="10" as="geometry"/>
                </mxCell>
                <mxCell id="DV-QQxApzA29Bk_mKNCQ-178" value="" style="ellipse;whiteSpace=wrap;html=1;aspect=fixed;" parent="1" vertex="1">
                    <mxGeometry x="556" y="382" width="10" height="10" as="geometry"/>
                </mxCell>
                <mxCell id="DV-QQxApzA29Bk_mKNCQ-179" value="" style="ellipse;whiteSpace=wrap;html=1;aspect=fixed;" parent="1" vertex="1">
                    <mxGeometry x="621" y="388" width="10" height="10" as="geometry"/>
                </mxCell>
                <mxCell id="DV-QQxApzA29Bk_mKNCQ-180" value="" style="ellipse;whiteSpace=wrap;html=1;aspect=fixed;" parent="1" vertex="1">
                    <mxGeometry x="680" y="388" width="10" height="10" as="geometry"/>
                </mxCell>
                <mxCell id="DV-QQxApzA29Bk_mKNCQ-181" value="" style="ellipse;whiteSpace=wrap;html=1;aspect=fixed;rotation=-15;" parent="1" vertex="1">
                    <mxGeometry x="656" y="498" width="10" height="10" as="geometry"/>
                </mxCell>
                <mxCell id="DV-QQxApzA29Bk_mKNCQ-182" value="" style="endArrow=none;html=1;rounded=0;exitX=0.905;exitY=1.004;exitDx=0;exitDy=0;exitPerimeter=0;entryX=0.5;entryY=0;entryDx=0;entryDy=0;" parent="1" source="MLYDKA6fRqXWFWqQbDaJ-16" target="DV-QQxApzA29Bk_mKNCQ-181" edge="1">
                    <mxGeometry width="50" height="50" relative="1" as="geometry">
                        <mxPoint x="661" y="494" as="sourcePoint"/>
                        <mxPoint x="711" y="444" as="targetPoint"/>
                    </mxGeometry>
                </mxCell>
                <mxCell id="DV-QQxApzA29Bk_mKNCQ-183" value="" style="endArrow=none;html=1;rounded=0;exitX=1.01;exitY=0.069;exitDx=0;exitDy=0;exitPerimeter=0;" parent="1" source="MLYDKA6fRqXWFWqQbDaJ-16" edge="1">
                    <mxGeometry width="50" height="50" relative="1" as="geometry">
                        <mxPoint x="632" y="446" as="sourcePoint"/>
                        <mxPoint x="682" y="396" as="targetPoint"/>
                    </mxGeometry>
                </mxCell>
                <mxCell id="DV-QQxApzA29Bk_mKNCQ-184" value="" style="endArrow=none;html=1;rounded=0;exitX=0.684;exitY=0.008;exitDx=0;exitDy=0;exitPerimeter=0;" parent="1" source="MLYDKA6fRqXWFWqQbDaJ-16" edge="1">
                    <mxGeometry width="50" height="50" relative="1" as="geometry">
                        <mxPoint x="576" y="448" as="sourcePoint"/>
                        <mxPoint x="626" y="398" as="targetPoint"/>
                    </mxGeometry>
                </mxCell>
                <mxCell id="DV-QQxApzA29Bk_mKNCQ-185" value="" style="endArrow=none;html=1;rounded=0;exitX=0.242;exitY=-0.033;exitDx=0;exitDy=0;exitPerimeter=0;" parent="1" source="MLYDKA6fRqXWFWqQbDaJ-16" edge="1">
                    <mxGeometry width="50" height="50" relative="1" as="geometry">
                        <mxPoint x="511" y="442" as="sourcePoint"/>
                        <mxPoint x="561" y="392" as="targetPoint"/>
                    </mxGeometry>
                </mxCell>
                <mxCell id="DV-QQxApzA29Bk_mKNCQ-186" value="" style="endArrow=none;html=1;rounded=0;entryX=-0.001;entryY=0.207;entryDx=0;entryDy=0;entryPerimeter=0;" parent="1" target="MLYDKA6fRqXWFWqQbDaJ-16" edge="1">
                    <mxGeometry width="50" height="50" relative="1" as="geometry">
                        <mxPoint x="511" y="409" as="sourcePoint"/>
                        <mxPoint x="561" y="359" as="targetPoint"/>
                    </mxGeometry>
                </mxCell>
                <mxCell id="DV-QQxApzA29Bk_mKNCQ-187" value="tipo&amp;nbsp;" style="text;html=1;align=center;verticalAlign=middle;resizable=0;points=[];autosize=1;strokeColor=none;fillColor=none;" parent="1" vertex="1">
                    <mxGeometry x="1137" y="448" width="50" height="30" as="geometry"/>
                </mxCell>
                <mxCell id="DV-QQxApzA29Bk_mKNCQ-188" value="necessita&lt;div&gt;&amp;nbsp;ricetta&lt;/div&gt;" style="text;html=1;align=center;verticalAlign=middle;resizable=0;points=[];autosize=1;strokeColor=none;fillColor=none;" parent="1" vertex="1">
                    <mxGeometry x="903" y="464" width="70" height="40" as="geometry"/>
                </mxCell>
                <mxCell id="DV-QQxApzA29Bk_mKNCQ-189" value="etÃ &amp;nbsp;&lt;div&gt;minima&lt;/div&gt;" style="text;html=1;align=center;verticalAlign=middle;resizable=0;points=[];autosize=1;strokeColor=none;fillColor=none;" parent="1" vertex="1">
                    <mxGeometry x="965" y="474" width="60" height="40" as="geometry"/>
                </mxCell>
                <mxCell id="DV-QQxApzA29Bk_mKNCQ-199" value="effetti&amp;nbsp;&lt;div&gt;colaterali&lt;/div&gt;" style="text;html=1;align=center;verticalAlign=middle;resizable=0;points=[];autosize=1;strokeColor=none;fillColor=none;" parent="1" vertex="1">
                    <mxGeometry x="1193.5" y="567.5" width="70" height="40" as="geometry"/>
                </mxCell>
                <mxCell id="DV-QQxApzA29Bk_mKNCQ-200" value="isfans" style="text;html=1;align=center;verticalAlign=middle;resizable=0;points=[];autosize=1;strokeColor=none;fillColor=none;" parent="1" vertex="1">
                    <mxGeometry x="1196.5" y="605.5" width="50" height="30" as="geometry"/>
                </mxCell>
                <mxCell id="DV-QQxApzA29Bk_mKNCQ-201" value="modalitÃ &lt;div&gt;assunzione&lt;/div&gt;" style="text;html=1;align=center;verticalAlign=middle;resizable=0;points=[];autosize=1;strokeColor=none;fillColor=none;" parent="1" vertex="1">
                    <mxGeometry x="952" y="587.5" width="80" height="40" as="geometry"/>
                </mxCell>
                <mxCell id="DV-QQxApzA29Bk_mKNCQ-202" value="" style="ellipse;whiteSpace=wrap;html=1;aspect=fixed;" parent="1" vertex="1">
                    <mxGeometry x="1196.5" y="578.5" width="9" height="9" as="geometry"/>
                </mxCell>
                <mxCell id="DV-QQxApzA29Bk_mKNCQ-203" value="" style="ellipse;whiteSpace=wrap;html=1;aspect=fixed;" parent="1" vertex="1">
                    <mxGeometry x="1190" y="614" width="9" height="9" as="geometry"/>
                </mxCell>
                <mxCell id="DV-QQxApzA29Bk_mKNCQ-204" value="" style="ellipse;whiteSpace=wrap;html=1;aspect=fixed;" parent="1" vertex="1">
                    <mxGeometry x="990" y="583" width="9" height="9" as="geometry"/>
                </mxCell>
                <mxCell id="aAnhq6Uqzf_nA7mnxK8A-2" value="" style="ellipse;whiteSpace=wrap;html=1;aspect=fixed;" parent="1" vertex="1">
                    <mxGeometry x="230" y="305" width="15" height="15" as="geometry"/>
                </mxCell>
                <mxCell id="aAnhq6Uqzf_nA7mnxK8A-3" value="" style="ellipse;whiteSpace=wrap;html=1;aspect=fixed;" parent="1" vertex="1">
                    <mxGeometry x="115" y="428" width="15" height="15" as="geometry"/>
                </mxCell>
                <mxCell id="aAnhq6Uqzf_nA7mnxK8A-5" value="" style="ellipse;whiteSpace=wrap;html=1;aspect=fixed;" parent="1" vertex="1">
                    <mxGeometry x="1139.5" y="458.5" width="9" height="9" as="geometry"/>
                </mxCell>
                <mxCell id="aAnhq6Uqzf_nA7mnxK8A-6" value="" style="ellipse;whiteSpace=wrap;html=1;aspect=fixed;" parent="1" vertex="1">
                    <mxGeometry x="1008.5" y="486.5" width="9" height="9" as="geometry"/>
                </mxCell>
                <mxCell id="aAnhq6Uqzf_nA7mnxK8A-7" value="" style="ellipse;whiteSpace=wrap;html=1;aspect=fixed;" parent="1" vertex="1">
                    <mxGeometry x="960" y="464" width="9" height="9" as="geometry"/>
                </mxCell>
                <mxCell id="aAnhq6Uqzf_nA7mnxK8A-8" value="" style="endArrow=none;html=1;rounded=0;entryX=-0.007;entryY=0.653;entryDx=0;entryDy=0;entryPerimeter=0;" parent="1" target="sGo81pWRSlFLJqfYXQ_L-19" edge="1">
                    <mxGeometry width="50" height="50" relative="1" as="geometry">
                        <mxPoint x="968" y="465" as="sourcePoint"/>
                        <mxPoint x="1018" y="415" as="targetPoint"/>
                    </mxGeometry>
                </mxCell>
                <mxCell id="aAnhq6Uqzf_nA7mnxK8A-9" value="" style="endArrow=none;html=1;rounded=0;entryX=0.25;entryY=1;entryDx=0;entryDy=0;" parent="1" target="sGo81pWRSlFLJqfYXQ_L-19" edge="1">
                    <mxGeometry width="50" height="50" relative="1" as="geometry">
                        <mxPoint x="1016" y="488" as="sourcePoint"/>
                        <mxPoint x="1066" y="438" as="targetPoint"/>
                    </mxGeometry>
                </mxCell>
                <mxCell id="aAnhq6Uqzf_nA7mnxK8A-10" value="" style="endArrow=none;html=1;rounded=0;exitX=1;exitY=1;exitDx=0;exitDy=0;entryX=0.044;entryY=0.54;entryDx=0;entryDy=0;entryPerimeter=0;" parent="1" source="sGo81pWRSlFLJqfYXQ_L-19" target="DV-QQxApzA29Bk_mKNCQ-187" edge="1">
                    <mxGeometry width="50" height="50" relative="1" as="geometry">
                        <mxPoint x="1092" y="530" as="sourcePoint"/>
                        <mxPoint x="1142" y="480" as="targetPoint"/>
                    </mxGeometry>
                </mxCell>
                <mxCell id="aAnhq6Uqzf_nA7mnxK8A-11" value="Specificano" style="shape=rhombus;perimeter=rhombusPerimeter;whiteSpace=wrap;html=1;align=center;" parent="1" vertex="1">
                    <mxGeometry x="1120" y="496.5" width="120" height="60" as="geometry"/>
                </mxCell>
                <mxCell id="aAnhq6Uqzf_nA7mnxK8A-15" value="BUGIARDINO" style="rounded=0;whiteSpace=wrap;html=1;" parent="1" vertex="1">
                    <mxGeometry x="1047" y="586.5" width="120" height="60" as="geometry"/>
                </mxCell>
                <mxCell id="aAnhq6Uqzf_nA7mnxK8A-23" style="edgeStyle=orthogonalEdgeStyle;rounded=0;orthogonalLoop=1;jettySize=auto;html=1;entryX=0.523;entryY=0.013;entryDx=0;entryDy=0;entryPerimeter=0;" parent="1" source="aAnhq6Uqzf_nA7mnxK8A-11" target="aAnhq6Uqzf_nA7mnxK8A-15" edge="1">
                    <mxGeometry relative="1" as="geometry">
                        <Array as="points">
                            <mxPoint x="1180" y="570"/>
                            <mxPoint x="1110" y="570"/>
                        </Array>
                    </mxGeometry>
                </mxCell>
                <mxCell id="aAnhq6Uqzf_nA7mnxK8A-26" value="" style="endArrow=none;html=1;rounded=0;entryX=-0.01;entryY=0.207;entryDx=0;entryDy=0;entryPerimeter=0;exitX=1;exitY=0.5;exitDx=0;exitDy=0;" parent="1" source="DV-QQxApzA29Bk_mKNCQ-204" target="aAnhq6Uqzf_nA7mnxK8A-15" edge="1">
                    <mxGeometry width="50" height="50" relative="1" as="geometry">
                        <mxPoint x="997" y="587.5" as="sourcePoint"/>
                        <mxPoint x="1047" y="537.5" as="targetPoint"/>
                    </mxGeometry>
                </mxCell>
                <mxCell id="aAnhq6Uqzf_nA7mnxK8A-27" value="" style="endArrow=none;html=1;rounded=0;exitX=1.006;exitY=0.225;exitDx=0;exitDy=0;exitPerimeter=0;" parent="1" source="aAnhq6Uqzf_nA7mnxK8A-15" edge="1">
                    <mxGeometry width="50" height="50" relative="1" as="geometry">
                        <mxPoint x="1147" y="633.5" as="sourcePoint"/>
                        <mxPoint x="1197" y="583.5" as="targetPoint"/>
                    </mxGeometry>
                </mxCell>
                <mxCell id="aAnhq6Uqzf_nA7mnxK8A-28" value="" style="endArrow=none;html=1;rounded=0;exitX=1.003;exitY=0.566;exitDx=0;exitDy=0;exitPerimeter=0;" parent="1" source="aAnhq6Uqzf_nA7mnxK8A-15" edge="1">
                    <mxGeometry width="50" height="50" relative="1" as="geometry">
                        <mxPoint x="1140" y="668.5" as="sourcePoint"/>
                        <mxPoint x="1190" y="618.5" as="targetPoint"/>
                    </mxGeometry>
                </mxCell>
                <mxCell id="aAnhq6Uqzf_nA7mnxK8A-37" value="" style="ellipse;whiteSpace=wrap;html=1;aspect=fixed;" parent="1" vertex="1">
                    <mxGeometry x="633" y="830" width="10" height="10" as="geometry"/>
                </mxCell>
                <mxCell id="aAnhq6Uqzf_nA7mnxK8A-38" value="" style="ellipse;whiteSpace=wrap;html=1;aspect=fixed;" parent="1" vertex="1">
                    <mxGeometry x="788.5" y="830" width="10" height="10" as="geometry"/>
                </mxCell>
                <mxCell id="aAnhq6Uqzf_nA7mnxK8A-39" value="" style="endArrow=none;html=1;rounded=0;entryX=-0.013;entryY=0.69;entryDx=0;entryDy=0;entryPerimeter=0;" parent="1" edge="1">
                    <mxGeometry width="50" height="50" relative="1" as="geometry">
                        <mxPoint x="586" y="809" as="sourcePoint"/>
                        <mxPoint x="642.44" y="793.4" as="targetPoint"/>
                    </mxGeometry>
                </mxCell>
                <mxCell id="aAnhq6Uqzf_nA7mnxK8A-40" value="" style="endArrow=none;html=1;rounded=0;entryX=0.194;entryY=0.995;entryDx=0;entryDy=0;entryPerimeter=0;" parent="1" target="6ZU64Irlaz8Kc_cLsEmv-5" edge="1">
                    <mxGeometry width="50" height="50" relative="1" as="geometry">
                        <mxPoint x="642" y="832" as="sourcePoint"/>
                        <mxPoint x="692" y="782" as="targetPoint"/>
                    </mxGeometry>
                </mxCell>
                <mxCell id="aAnhq6Uqzf_nA7mnxK8A-44" value="" style="endArrow=none;html=1;rounded=0;entryX=0.5;entryY=1;entryDx=0;entryDy=0;" parent="1" target="6ZU64Irlaz8Kc_cLsEmv-5" edge="1">
                    <mxGeometry width="50" height="50" relative="1" as="geometry">
                        <mxPoint x="706" y="830" as="sourcePoint"/>
                        <mxPoint x="756" y="780" as="targetPoint"/>
                    </mxGeometry>
                </mxCell>
                <mxCell id="aAnhq6Uqzf_nA7mnxK8A-45" value="" style="endArrow=none;html=1;rounded=0;entryX=0.905;entryY=1.003;entryDx=0;entryDy=0;entryPerimeter=0;" parent="1" target="6ZU64Irlaz8Kc_cLsEmv-5" edge="1">
                    <mxGeometry width="50" height="50" relative="1" as="geometry">
                        <mxPoint x="793" y="830" as="sourcePoint"/>
                        <mxPoint x="843" y="780" as="targetPoint"/>
                    </mxGeometry>
                </mxCell>
                <mxCell id="aAnhq6Uqzf_nA7mnxK8A-52" style="edgeStyle=orthogonalEdgeStyle;rounded=0;orthogonalLoop=1;jettySize=auto;html=1;entryX=0;entryY=0.5;entryDx=0;entryDy=0;" parent="1" source="aAnhq6Uqzf_nA7mnxK8A-48" target="sGo81pWRSlFLJqfYXQ_L-3" edge="1">
                    <mxGeometry relative="1" as="geometry"/>
                </mxCell>
                <mxCell id="aAnhq6Uqzf_nA7mnxK8A-56" style="edgeStyle=orthogonalEdgeStyle;rounded=0;orthogonalLoop=1;jettySize=auto;html=1;entryX=0.5;entryY=0;entryDx=0;entryDy=0;" parent="1" source="aAnhq6Uqzf_nA7mnxK8A-48" target="aAnhq6Uqzf_nA7mnxK8A-55" edge="1">
                    <mxGeometry relative="1" as="geometry"/>
                </mxCell>
                <mxCell id="aAnhq6Uqzf_nA7mnxK8A-48" value="Lavorano" style="shape=rhombus;perimeter=rhombusPerimeter;whiteSpace=wrap;html=1;align=center;" parent="1" vertex="1">
                    <mxGeometry x="-80" y="339" width="120" height="60" as="geometry"/>
                </mxCell>
                <mxCell id="aAnhq6Uqzf_nA7mnxK8A-51" value="" style="endArrow=none;html=1;rounded=0;exitX=0.869;exitY=-0.005;exitDx=0;exitDy=0;exitPerimeter=0;" parent="1" source="sGo81pWRSlFLJqfYXQ_L-3" edge="1">
                    <mxGeometry width="50" height="50" relative="1" as="geometry">
                        <mxPoint x="186" y="370" as="sourcePoint"/>
                        <mxPoint x="236" y="320" as="targetPoint"/>
                    </mxGeometry>
                </mxCell>
                <mxCell id="aAnhq6Uqzf_nA7mnxK8A-54" value="" style="endArrow=none;html=1;rounded=0;entryX=0.099;entryY=1.014;entryDx=0;entryDy=0;entryPerimeter=0;" parent="1" target="sGo81pWRSlFLJqfYXQ_L-3" edge="1">
                    <mxGeometry width="50" height="50" relative="1" as="geometry">
                        <mxPoint x="123" y="428" as="sourcePoint"/>
                        <mxPoint x="173" y="378" as="targetPoint"/>
                    </mxGeometry>
                </mxCell>
                <mxCell id="aAnhq6Uqzf_nA7mnxK8A-55" value="TURNI" style="rounded=0;whiteSpace=wrap;html=1;" parent="1" vertex="1">
                    <mxGeometry x="-80" y="459" width="120" height="60" as="geometry"/>
                </mxCell>
                <mxCell id="aAnhq6Uqzf_nA7mnxK8A-59" value="orario inizio" style="text;html=1;align=center;verticalAlign=middle;resizable=0;points=[];autosize=1;strokeColor=none;fillColor=none;" parent="1" vertex="1">
                    <mxGeometry x="-157" y="423" width="80" height="30" as="geometry"/>
                </mxCell>
                <mxCell id="aAnhq6Uqzf_nA7mnxK8A-60" value="orario fine" style="text;html=1;align=center;verticalAlign=middle;resizable=0;points=[];autosize=1;strokeColor=none;fillColor=none;" parent="1" vertex="1">
                    <mxGeometry x="-180" y="465" width="80" height="30" as="geometry"/>
                </mxCell>
                <mxCell id="aAnhq6Uqzf_nA7mnxK8A-61" value="giorni" style="text;html=1;align=center;verticalAlign=middle;resizable=0;points=[];autosize=1;strokeColor=none;fillColor=none;" parent="1" vertex="1">
                    <mxGeometry x="-160" y="532.5" width="50" height="30" as="geometry"/>
                </mxCell>
                <mxCell id="aAnhq6Uqzf_nA7mnxK8A-62" value="id turno" style="text;html=1;align=center;verticalAlign=middle;resizable=0;points=[];autosize=1;strokeColor=none;fillColor=none;" parent="1" vertex="1">
                    <mxGeometry x="241" y="400" width="60" height="30" as="geometry"/>
                </mxCell>
                <mxCell id="aAnhq6Uqzf_nA7mnxK8A-63" value="" style="ellipse;whiteSpace=wrap;html=1;aspect=fixed;" parent="1" vertex="1">
                    <mxGeometry x="263.5" y="394" width="15" height="15" as="geometry"/>
                </mxCell>
                <mxCell id="aAnhq6Uqzf_nA7mnxK8A-64" value="" style="endArrow=none;html=1;rounded=0;exitX=0.005;exitY=0.327;exitDx=0;exitDy=0;exitPerimeter=0;entryX=1.015;entryY=0.852;entryDx=0;entryDy=0;entryPerimeter=0;" parent="1" source="aAnhq6Uqzf_nA7mnxK8A-63" target="sGo81pWRSlFLJqfYXQ_L-3" edge="1">
                    <mxGeometry width="50" height="50" relative="1" as="geometry">
                        <mxPoint x="270" y="398" as="sourcePoint"/>
                        <mxPoint x="282" y="380" as="targetPoint"/>
                    </mxGeometry>
                </mxCell>
                <mxCell id="aAnhq6Uqzf_nA7mnxK8A-66" value="id turno" style="text;html=1;align=center;verticalAlign=middle;resizable=0;points=[];autosize=1;strokeColor=none;fillColor=none;" parent="1" vertex="1">
                    <mxGeometry x="-80" y="549" width="60" height="30" as="geometry"/>
                </mxCell>
                <mxCell id="aAnhq6Uqzf_nA7mnxK8A-67" value="" style="ellipse;whiteSpace=wrap;html=1;aspect=fixed;" parent="1" vertex="1">
                    <mxGeometry x="-57.5" y="545" width="15" height="15" as="geometry"/>
                </mxCell>
                <mxCell id="aAnhq6Uqzf_nA7mnxK8A-68" value="" style="ellipse;whiteSpace=wrap;html=1;aspect=fixed;" parent="1" vertex="1">
                    <mxGeometry x="-118" y="541.5" width="15" height="15" as="geometry"/>
                </mxCell>
                <mxCell id="aAnhq6Uqzf_nA7mnxK8A-70" value="" style="ellipse;whiteSpace=wrap;html=1;aspect=fixed;" parent="1" vertex="1">
                    <mxGeometry x="-147.5" y="489.5" width="15" height="15" as="geometry"/>
                </mxCell>
                <mxCell id="aAnhq6Uqzf_nA7mnxK8A-71" value="" style="ellipse;whiteSpace=wrap;html=1;aspect=fixed;" parent="1" vertex="1">
                    <mxGeometry x="-125" y="445" width="15" height="15" as="geometry"/>
                </mxCell>
                <mxCell id="aAnhq6Uqzf_nA7mnxK8A-72" value="" style="endArrow=none;html=1;rounded=0;exitX=-0.008;exitY=0.131;exitDx=0;exitDy=0;exitPerimeter=0;entryX=1;entryY=1;entryDx=0;entryDy=0;" parent="1" source="aAnhq6Uqzf_nA7mnxK8A-55" target="aAnhq6Uqzf_nA7mnxK8A-71" edge="1">
                    <mxGeometry width="50" height="50" relative="1" as="geometry">
                        <mxPoint x="-170" y="510" as="sourcePoint"/>
                        <mxPoint x="-120" y="460" as="targetPoint"/>
                    </mxGeometry>
                </mxCell>
                <mxCell id="aAnhq6Uqzf_nA7mnxK8A-73" value="" style="endArrow=none;html=1;rounded=0;entryX=-0.01;entryY=0.622;entryDx=0;entryDy=0;entryPerimeter=0;" parent="1" target="aAnhq6Uqzf_nA7mnxK8A-55" edge="1">
                    <mxGeometry width="50" height="50" relative="1" as="geometry">
                        <mxPoint x="-133" y="498" as="sourcePoint"/>
                        <mxPoint x="-83" y="448" as="targetPoint"/>
                    </mxGeometry>
                </mxCell>
                <mxCell id="aAnhq6Uqzf_nA7mnxK8A-74" value="" style="endArrow=none;html=1;rounded=0;entryX=0.053;entryY=1.01;entryDx=0;entryDy=0;entryPerimeter=0;" parent="1" target="aAnhq6Uqzf_nA7mnxK8A-55" edge="1">
                    <mxGeometry width="50" height="50" relative="1" as="geometry">
                        <mxPoint x="-105" y="545" as="sourcePoint"/>
                        <mxPoint x="-55" y="495" as="targetPoint"/>
                    </mxGeometry>
                </mxCell>
                <mxCell id="aAnhq6Uqzf_nA7mnxK8A-75" value="" style="endArrow=none;html=1;rounded=0;entryX=0.312;entryY=1.018;entryDx=0;entryDy=0;entryPerimeter=0;" parent="1" target="aAnhq6Uqzf_nA7mnxK8A-55" edge="1">
                    <mxGeometry width="50" height="50" relative="1" as="geometry">
                        <mxPoint x="-49" y="545" as="sourcePoint"/>
                        <mxPoint x="1" y="495" as="targetPoint"/>
                    </mxGeometry>
                </mxCell>
                <mxCell id="aAnhq6Uqzf_nA7mnxK8A-78" style="edgeStyle=orthogonalEdgeStyle;rounded=0;orthogonalLoop=1;jettySize=auto;html=1;entryX=0.5;entryY=0;entryDx=0;entryDy=0;" parent="1" source="aAnhq6Uqzf_nA7mnxK8A-76" target="aAnhq6Uqzf_nA7mnxK8A-77" edge="1">
                    <mxGeometry relative="1" as="geometry"/>
                </mxCell>
                <mxCell id="aAnhq6Uqzf_nA7mnxK8A-79" style="edgeStyle=orthogonalEdgeStyle;rounded=0;orthogonalLoop=1;jettySize=auto;html=1;" parent="1" source="aAnhq6Uqzf_nA7mnxK8A-76" target="MLYDKA6fRqXWFWqQbDaJ-16" edge="1">
                    <mxGeometry relative="1" as="geometry"/>
                </mxCell>
                <mxCell id="aAnhq6Uqzf_nA7mnxK8A-76" value="Costituiscono" style="shape=rhombus;perimeter=rhombusPerimeter;whiteSpace=wrap;html=1;align=center;" parent="1" vertex="1">
                    <mxGeometry x="542" y="538.5" width="120" height="60" as="geometry"/>
                </mxCell>
                <mxCell id="aAnhq6Uqzf_nA7mnxK8A-77" value="REGISTO&lt;div&gt;VENDITE&lt;/div&gt;" style="rounded=0;whiteSpace=wrap;html=1;" parent="1" vertex="1">
                    <mxGeometry x="700.5" y="596" width="120" height="60" as="geometry"/>
                </mxCell>
                <mxCell id="aAnhq6Uqzf_nA7mnxK8A-80" value="id vendita" style="text;html=1;align=center;verticalAlign=middle;resizable=0;points=[];autosize=1;strokeColor=none;fillColor=none;" parent="1" vertex="1">
                    <mxGeometry x="849.5" y="592" width="70" height="30" as="geometry"/>
                </mxCell>
                <mxCell id="aAnhq6Uqzf_nA7mnxK8A-81" value="id prodotto" style="text;html=1;align=center;verticalAlign=middle;resizable=0;points=[];autosize=1;strokeColor=none;fillColor=none;" parent="1" vertex="1">
                    <mxGeometry x="844.5" y="637" width="80" height="30" as="geometry"/>
                </mxCell>
                <mxCell id="aAnhq6Uqzf_nA7mnxK8A-82" value="" style="ellipse;whiteSpace=wrap;html=1;aspect=fixed;rotation=-15;" parent="1" vertex="1">
                    <mxGeometry x="847.5" y="603" width="10" height="10" as="geometry"/>
                </mxCell>
                <mxCell id="aAnhq6Uqzf_nA7mnxK8A-83" value="" style="ellipse;whiteSpace=wrap;html=1;aspect=fixed;rotation=-15;" parent="1" vertex="1">
                    <mxGeometry x="844.5" y="647" width="10" height="10" as="geometry"/>
                </mxCell>
                <mxCell id="aAnhq6Uqzf_nA7mnxK8A-84" value="" style="endArrow=none;html=1;rounded=0;exitX=1.003;exitY=0.332;exitDx=0;exitDy=0;exitPerimeter=0;" parent="1" source="aAnhq6Uqzf_nA7mnxK8A-77" edge="1">
                    <mxGeometry width="50" height="50" relative="1" as="geometry">
                        <mxPoint x="797.5" y="658" as="sourcePoint"/>
                        <mxPoint x="847.5" y="608" as="targetPoint"/>
                    </mxGeometry>
                </mxCell>
                <mxCell id="aAnhq6Uqzf_nA7mnxK8A-85" value="" style="endArrow=none;html=1;rounded=0;exitX=1.003;exitY=0.71;exitDx=0;exitDy=0;exitPerimeter=0;" parent="1" source="aAnhq6Uqzf_nA7mnxK8A-77" edge="1">
                    <mxGeometry width="50" height="50" relative="1" as="geometry">
                        <mxPoint x="794.5" y="702" as="sourcePoint"/>
                        <mxPoint x="844.5" y="652" as="targetPoint"/>
                    </mxGeometry>
                </mxCell>
                <mxCell id="aAnhq6Uqzf_nA7mnxK8A-86" value="vettore" style="text;html=1;align=center;verticalAlign=middle;resizable=0;points=[];autosize=1;strokeColor=none;fillColor=none;" parent="1" vertex="1">
                    <mxGeometry x="574.5" y="1000" width="60" height="30" as="geometry"/>
                </mxCell>
                <mxCell id="aAnhq6Uqzf_nA7mnxK8A-87" value="causale&amp;nbsp;&lt;div&gt;trasporto&lt;/div&gt;" style="text;html=1;align=center;verticalAlign=middle;resizable=0;points=[];autosize=1;strokeColor=none;fillColor=none;" parent="1" vertex="1">
                    <mxGeometry x="530" y="1025" width="70" height="40" as="geometry"/>
                </mxCell>
                <mxCell id="aAnhq6Uqzf_nA7mnxK8A-88" value="id&lt;div&gt;prodotto&lt;/div&gt;&lt;div&gt;&lt;br&gt;&lt;/div&gt;" style="text;html=1;align=center;verticalAlign=middle;resizable=0;points=[];autosize=1;strokeColor=none;fillColor=none;" parent="1" vertex="1">
                    <mxGeometry x="465" y="1019" width="70" height="60" as="geometry"/>
                </mxCell>
                <mxCell id="2" value="" style="endArrow=none;html=1;exitX=0;exitY=0;exitDx=0;exitDy=0;" edge="1" parent="1" source="aAnhq6Uqzf_nA7mnxK8A-15" target="3">
                    <mxGeometry width="50" height="50" relative="1" as="geometry">
                        <mxPoint x="1137" y="427.5" as="sourcePoint"/>
                        <mxPoint x="1027" y="557.5" as="targetPoint"/>
                    </mxGeometry>
                </mxCell>
                <mxCell id="3" value="" style="shape=waypoint;sketch=0;fillStyle=solid;size=6;pointerEvents=1;points=[];fillColor=none;resizable=0;rotatable=0;perimeter=centerPerimeter;snapToPoint=1;" vertex="1" parent="1">
                    <mxGeometry x="1017" y="547.5" width="20" height="20" as="geometry"/>
                </mxCell>
                <mxCell id="4" value="id_prodotto" style="text;html=1;align=center;verticalAlign=middle;resizable=0;points=[];autosize=1;strokeColor=none;fillColor=none;" vertex="1" parent="1">
                    <mxGeometry x="964.5" y="532.5" width="90" height="30" as="geometry"/>
                </mxCell>
                <mxCell id="15" value="" style="edgeStyle=segmentEdgeStyle;endArrow=classic;html=1;curved=0;rounded=0;endSize=8;startSize=8;entryX=0.75;entryY=1;entryDx=0;entryDy=0;exitX=0.5;exitY=0;exitDx=0;exitDy=0;" edge="1" parent="1" source="aAnhq6Uqzf_nA7mnxK8A-11" target="sGo81pWRSlFLJqfYXQ_L-19">
                    <mxGeometry width="50" height="50" relative="1" as="geometry">
                        <mxPoint x="1263.5" y="503" as="sourcePoint"/>
                        <mxPoint x="1313.5" y="453" as="targetPoint"/>
                    </mxGeometry>
                </mxCell>
            </root>
        </mxGraphModel>
    </diagram>
</mxfile>